/* XPM */
static char *loading[] = {
/* columns rows colors chars-per-pixel */
"228 62 61 1 ",
"  c #6F6F6F",
". c gray44",
"X c #717171",
"o c gray46",
"O c #777777",
"+ c #797979",
"@ c #989898",
"# c gray60",
"$ c #9A9A9A",
"% c #9B9B9B",
"& c gray61",
"* c #9D9D9D",
"= c #A0A0A0",
"- c #A2A2A2",
"; c gray64",
": c #A4A4A4",
"> c #A5A5A5",
", c gray65",
"< c #A7A7A7",
"1 c gray66",
"2 c #A9A9A9",
"3 c #AAAAAA",
"4 c gray67",
"5 c #ACACAC",
"6 c gray68",
"7 c #AEAEAE",
"8 c #AFAFAF",
"9 c gray69",
"0 c #B1B1B1",
"q c #B2B2B2",
"w c gray70",
"e c #B4B4B4",
"r c gray71",
"t c #B6B6B6",
"y c #B7B7B7",
"u c gray72",
"i c #B9B9B9",
"p c gray73",
"a c #BBBBBB",
"s c #BCBCBC",
"d c gray74",
"f c gray",
"g c gray75",
"h c #C0C0C0",
"j c #C1C1C1",
"k c gray76",
"l c #C3C3C3",
"z c gray77",
"x c #C5C5C5",
"c c #C6C6C6",
"v c gray78",
"b c #C8C8C8",
"n c gray79",
"m c #CACACA",
"M c #CBCBCB",
"N c gray80",
"B c #CDCDCD",
"V c #CECECE",
"C c gray81",
"Z c #D0D0D0",
"A c None",
/* pixels */
"AAAAAAAAAAAAAAAAAAAAAAAAAAAAAAAAAAAAAAAAAAAAAAAAAAAAAAAAAAAAAAAAAAAAAAAAAAAAAAAAAAAAAAAAAAAAAAAAAAAAAAAAAAAAAAAAAAAAAAAAAAAAAAAAAAAAAAAAAAAAAAAAAAAAAAAAAAAAAAAAAAAAAAAAAAAAAAAAAAAAAAAAAAAAAAAAAAAAAAAAAAAAAAAAAAAAAAAAAAAAAAAAAAAA",
"AAAAAAAAAAAAAAAAAAAAAAAAAAAAAAAAAAAAAAAAAAAAAAAAAAAAAAAAAAAAAAAAAAAAAAAAAAAAAAAAAAAAAAAAAAAAAAAAAAAAAAAAAAAAAAAAAAAAAAAAAAAAAAAAAAAAAAAAAAAAAAAAAAAAAAAAAAAAAAAAAAAAAAAAAAAAAAAAAAAAAAAAAAAAAAAAAAAAAAAAAAAAAAAAAAAAAAAAAAAAAAAAAAAA",
"AAAAAAAAAAAAAAAAAAAAAAAAAAAAAAAAAAAAAAAAAAAAAAAAAAAAAAAAAAAAAAAAAAAAAAAAAAAAAAAAAAAAAAAAAAAAAAAAAAAAAAAAAAAAAAAAAAAAAAAAAAAAAAAAAAAAAAAAAAAAAAAAAAAAAAAAAAAAAAAAAAAAAAAAAAAAAAAAAAAAAAAAAAAAAAAAAAAAAAAAAAAAAAAAAAAAAAAAAAAAAAAAAAAA",
"AAAAAAAAAAAAAAAAAAAAAAAAAAAAAAAAAAAAAAAAAAAAAAAAAAAAAAAAAAAAAAAAAAAAAAAAAAAAAAAAAAAAAAAAAAAAAAAAAAAAAAAAAAAAAAAAAAAAAAAAAAAAAAAAAAAAAAAAAAAAAAAAAAAAAAAAAAAAAAAAAAAAAAAAAAAAAAAAAAAAAAAAAAAAAAAAAAAAAAAAAAAAAAAAAAAAAAAAAAAAAAAAAAAA",
"AAAAAAAAAAAAAAAAAAAAAAAAAAAAAAAAAAAAAAAAAAAAAAAAAAAAAAAAAAAAAAAAAAAAAAAAAAAAAAAAAAAAAAAAAAAAAAAAAAAAAAAAAAAAAAAAAAAAAAAAAAAAAAAAAAAAAAAAAAAAAAAAAAAAAAAAAAAAAAAAAAAAAAAAAAAAAAAAAAAAAAAAAAAAAAAAAAAAAAAAAAAAAAAAAAAAAAAAAAAAAAAAAAAA",
"AAAAAAAAAAAAAAAAAAAAAAAAAAAAAAAAAAAAAAAAAAAAAAAAAAAAAAAAAAAAAAAAAAAAAAAAAAAAAAAAAAAAAAAAAAAAAAAAAAAAAAAAAAAAAAAAAAAAAAAAAAAAAAAAAAAAAAAAAAAAAAAAAAAAAAAAAAAAAAAAAAAAAAAAAAAAAAAAAAAAAAAAAAAAAAAAAAAAAAAAAAAAAAAAAAAAAAAAAAAAAAAAAAAA",
"AAAAAAAAAAAAAAAAAAAAAAAAAAAAAAAAAAAAAAAAAAAAAAAAAAAAAAAAAAAAAAAAAAAAAAAAAAAAAAAAAAAAAAAAAAAAAAAAAAAAAAAAAAAAAAAAAAAAAAAAAAAAAAAAAAAAAAAAAAAAAAAAAAAAAAAAAAAAAAAAAAAAAAAAAAAAAAAAAAAAAAAAAAAAAAAAAAAAAAAAAAAAAAAAAAAAAAAAAAAAAAAAAAAA",
"AAAAAAAAAAAAAAAAjrrrraAAAAAAAAAAAAAAAAAAAAAAAAAAAsrrrrrrarrraAAAAAAAAAAAAAAAAAAAAAsr9rrrrarrasAAAAAAAAAAAAAvssssssssssssaaasajAAAAAAAAAAAAAAjrrrrsAAAAAAAjrrrraAAAAAAAAAAAAAAsrrrrjAAAAAAAAAAAAAsrrrr9rrrrrsAAAAAAAAAAAAAAAAAAAAAAAA",
"AAAAAAAAAAAAAAAAr,,,,93AAAAAAAAAAAAAAAAAAAAAAAAA39,,,,,,,,3,73AAAAAAAAAAAAAAAAAAA37,,;;,,,,3,93AAAAAAAAAAAAs99979999999777777r7AAAAAAAAAAAAAr,,;,33AAAAAAr,,,,73AAAAAAAAAAAA39,3,,rAAAAAAAAAAAA393,,,,;,;,,93AAAAAAAAAAAAAAAAAAAAAAA",
"AAAAAAAAAAAAAAAAr,;,,73AAAAAAAAAAAAAAAAAAAAAAAAA39,,,,,,,,,,73AAAAAAAAAAAAAAAAAAA37,,,,,,,3,393AAAAAAAAAAAAs99999999999997997r7AAAAAAAAAAAAAr;;;,73AAAAAAr,,,,73AAAAAAAAAAAA37,,,,rAAAAAAAAAAAA37,,,,,,,,,,73AAAAAAAAAAAAAAAAAAAAAAA",
"AAAAAAAAAAAAAAAAr,,,,93AAAAAAAAAAAAAAAAAAAAAAAAA37,,,,,,,,,373AAAAAAAAAAAAAAAAAAA37,,,,,,3,3373AAAAAAAAAAAAj9999r9rrr99999977r7AAAAAAAAAAAAAr,,,,73AAAAAAr,,,,73AAAAAAAAAAAA37,,,,rAAAAAAAAAAAA37,,,3,,,,3,73AAAAAAAAAAAAAAAAAAAAAAA",
"AAAAAAAAAAAAAAAAr,,,,73AAAAAAAAAAAAAAAAAAAAAAAAA37,3,,,,,,,,93AAAAAAAAAAAAAAAAAAA37,,,,,,,,3397AAAAAAAAAAAAjr9r9rr999rr999997r7AAAAAAAAAAAAAr,;,,73AAAAAAr,,,,73AAAAAAAAAAAA373,,,rAAAAAAAAAAAA37,,,,,,,,,,93AAAAAAAAAAAAAAAAAAAAAAA",
"AAAAAAAAAAAAAAAAr3,,,33AAAAAAAAAAAAAAAAAAAAAAAAA37,,,,,,,,,,73AAAAAAAAAAAAAAAAAAA37,,3,,,3,3397AAAAAAAAAAAAjrr9r99r9r9rr99999a7AAAAAAAAAAAAAa,;,,73AAAAAAr,,;,73AAAAAAAAAAAA37,,,,rAAAAAAAAAAAA37,,,,,3,,,,93AAAAAAAAAAAAAAAAAAAAAAA",
"AAAAAAAAAAAAAAAAr,3,,73AAAAAAAAAAAAAAAAAAAAAAAAA3rrr9rrrrrrra3AAAAAAAAAAAAAAAAAAA3arrrrrrraras7AAAAAAAAAAAAjrrrraajjjjjjjjjssj7AAAAAAAAAAAAAr,;,,73AAAAAAr,,;,73AAAAAAAAAAAA37,,,,rAAAAAAAAAAAA3arrrrrrrrrra3AAAAAAAAAAAAAAAAAAAAAAA",
"AAAAAAAAAAAAAAAAr,,,,73AAAAAAAAAAAAAAAAAAAj9rrra3+OO+OOO+OOOO3arrrrjAAAAAAAjrrrra3OOOOOOOOOO+O7ssssjnAAAAAAjrrrrs&+OOOOO+OOOOOasssssvAAAAAAAr,;,,73AAAAAAr,3,,7,AAAAAAAAAAAA37,,,,rAAAAAAsrrrra3OOOO+OOO+OOO3a9rr9jAAAAAAAAAAAAAAAAA",
"AAAAAAAAAAAAAAAAr,,,,73AAAAAAAAAAAAAAAAAAAr33,,73AAAAAAAAAAAA37,,,,rAAAAAAA9,,,373AAAAAAAAAAAA7r7799sAAAAAAjrrars9AAAAAAAAAAAArr9997aAAAAAAAr,,,,73AAAAAAr,,,;73AAAAAAAAAAAA37,,,3rAAAAAAr,,,,7,AAAAAAAAAAAA37,,,,rAAAAAAAAAAAAAAAAA",
"AAAAAAAAAAAAAAAAr,,,,73AAAAAAAAAAAAAAAAAAAr,,,,73AAAAAAAAAAAA37,,,,9AAAAAAAr,,,,73AAAAAAAAAAAA7r9999sAAAAAAjraasjrAAAAAAAAAAAArr9997sAAAAAAAr,,,,33AAAAAAr,,,,73AAAAAAAAAAAA37,,,,rAAAAAAr,,,,73AAAAAAAAAAAA37,3,,rAAAAAAAAAAAAAAAAA",
"AAAAAAAAAAAAAAAAr3,,,73AAAAAAAAAAAAAAAAAAAr3,,,93AAAAAAAAAAAA3733,,9AAAAAAAa,,,,73AAAAAAAAAAAA7r9999jAAAAAAvsassj9AAAAAAAAAAAArar999sAAAAAAAr3,,,73AAAAAAr,,,,73AAAAAAAAAAAA37,,,,rAAAAAAr3,,,73AAAAAAAAAAAA37,,,,rAAAAAAAAAAAAAAAAA",
"AAAAAAAAAAAAAAAAr,,3,73AAAAAAAAAAAAAAAAAAAr,,,,73AAAAAAAAAAAA37,,,,rAAAAAAAr,,,,73AAAAAAAAAAAA7a9r9rjAAAAAAvasssjrAAAAAAAAAAAArr9r99sAAAAAAAr3,3,73AAAAAAr,,,,73AAAAAAAAAAAA37,,,,rAAAAAAr,,,,73AAAAAAAAAAAA37,,3,rAAAAAAAAAAAAAAAAA",
"AAAAAAAAAAAAAAAAr,,,,73AAAAAAAAAAAAAAAAAAAr,,3,73AAAAAAAAAAAA39,,,,rAAAAAAAr,,,,73AAAAAAAAAAAA7r99rrjAAAAAAnsssjvrAAAAAAAAAAAArarrr9sAAAAAAAa,,,,73AAAAAAr,3,,3,AAAAAAAAAAAA37,,3,rAAAAAAr,,,373AAAAAAAAAAAA37,,,,rAAAAAAAAAAAAAAAAA",
"AAAAAAAAAAAAAAAAr3,3,73AAAAAAAAAAAAAAAAAAAr,,,373AAAAAAAAAAAA37,,,3rAAAAAAAr,,,373AAAAAAAAAAAA7rr9rajAAAAAAnjsjsjrAAAAAAAAAAAAaa9999sAAAAAAAr3,,,73AAAAAAr,3,,379rrrrjAAAAAA37,,,,rAAAAAAr,,;,73AAAAAAAAAAAA3a9rr9jAAAAAAAAAAAAAAAAA",
"AAAAAAAAAAAAAAAAr,,,,73AAAAAAAAAAAAAAAAAAAr,,,,73AAAAAAAAAAAA37,,,,rAAAAAAAr,,,,73AAAAAAAAAAAA7a9rrrvAAAAAAnsjsjvaAAAAAAAAAAAAarrrrrsAAAAAAAa,3,373AAAAAAr,,,;;,,,,,,rAAAAAA79,,,,rAAAAAAr3,;;73AAAAAAAAAAAAOOOOO+OAAAAAAAAAAAAAAAAA",
"AAAAAAAAAAAAAAAAr,,,,73AAAAAAAAAAAAAAAAAAAr,,,,93AAAAAAAAAAAA37,,,,rAAAAAAAr,,,,93AAAAAAAAAAAA7arrrajAAAAAABjjjjvaAAAAAAAAAAAAararr9jAAAAAAAr3,,373AAAAAAr,,,,,,,3,,,rAAAAAA373,,,rAAAAAAa,,,;7,AAAAAAAAAAAAAAAAAAAAAAAAAAAAAAAAAAAA",
"AAAAAAAAAAAAAAAAr,,,,73AAAAAAAAAAAAAAAAAAAr3,,,73AAAAAAAAAAAA37,,33rAAAAAAAr,3,,73AAAAAAAAAAAA7arrrrvAAAAAABjjvjnrAAAAAAAAAAAAaar9rrsAAAAAAAr333,73AAAAAAr3,,3,,,,,,3rAAAAAA37,,,,aAAAAAA9;,;,73AAAAAAAAAAAAAAAAAAAAAAAAAAAAAAAAAAAA",
"AAAAAAAAAAAAAAAAr,,,,73AAAAAAAAAAAAAAAAAAAr,,,373AAAAAAAAAAAA37,,,,rAAAAAAAr,,,,73AAAAAAAAAAAA7a9rrrvAAAAAAnvjjvnrAAAAAAAAAAAAaarrrrjAAAAAAAa33,,73AAAAAAr3,,3,,,,,,3rAAAAAA37,,,,rAAAAAAr,,,,33AAAAAAAAAAAAAAAAAAAAAAAAAAAAAAAAAAAA",
"AAAAAAAAAAAAAAAAr,,,,73AAAAAAAAAAAAAAAAAAAr,,,,73AAAAAAAAAAAA37,,,3rAAAAAAAr,,,,3,AAAAAAAAAAAA3rrrarvAAAAAABjvvjnaAAAAAAAAAAAAaaarrrjAAAAAAAa3,3,73AAAAAAr,,,,,79rr9rsAAAAAA;7,,,,rAAAAAAr,,,,73AAAAAAAAAAAAAAAAAAAAAAAAAAAAAAAAAAAA",
"AAAAAAAAAAAAAAAAr3,,,73AAAAAAAAAAAAAAAAAAAr;,,,73AAAAAAAAAAAA37,,,,rAAAAAAA9;,,,,9rrraaaassssjrrrrrrvAAAAAABvjvvBaAAAAAAAAAAAArarrrrsAAAAAAAa3,,,73AAAAAAr,,,,7%OOOO++s9rrr973,,,,9AAAAAAr3,,,73AAAAAAj9rra9r9arrrsAAAAAAAAAAAAAAAAA",
"AAAAAAAAAAAAAAAA9,,,373AAAAAAAAAAAAAAAAAAA9,,,,73AAAAAAAAAAAA37,,,,rAAAAAAAr;,,,3,,,3,377979999rrrravAAAAAAZvvvvBaAAAAAAAAAAAAaarrr9jAAAAAAAr333,7,AAAAAAr,,,,73AAAAAAr,,,,33,;,;,rAAAAAAr,,,,7,AAAAAAr,,,,,,,,,3,rAAAAAAAAAAAAAAAAA",
"AAAAAAAAAAAAAAAAr,,,,93AAAAAAAAAAAAAAAAAAAr,,,,73AAAAAAAAAAAA37,,,,rAAAAAAAr,,,,,,,,33337779999rrrrrvAAAAAAZvvnnBaAAAAAAAAAAAAasarrrsAAAAAAAr733373AAAAAAr,3,,73AAAAAAr,,,,,,,,;,,rAAAAAAr,,;,73AAAAAAr,,,,,,,,,,,rAAAAAAAAAAAAAAAAA",
"AAAAAAAAAAAAAAAAr,,,,73AAAAAAAAAAAAAAAAAAAr,,,,93AAAAAAAAAAAA37,,;,aAAAAAAAr,,,,,,3,,3337777999rrrrrvAAAAAABvvvnBaAAAAAAAAAAAAasrar9jAAAAAAAa33,,73AAAAAAr,,,,73AAAAAA9,,,,,3,,,,,rAAAAAAr,;;,73AAAAAAr,,,,,,,,,3,rAAAAAAAAAAAAAAAAA",
"AAAAAAAAAAAAAAAAr3,3,73AAAAAAAAAAAAAAAAAAAr,;;;73AAAAAAAAAAAA37,,,,rAAAAAAAr3,,,,,333333337999rrrrravAAAAAABvvnBBaAAAAAAAAAAAAaarrrrjAAAAAAAr33,373AAAAAAr,,,,33AAAAAA9,,,,,,,,,,,rAAAAAA9,,;,73AAAAAAr,,,,,,,,,,,rAAAAAAAAAAAAAAAAA",
"AAAAAAAAAAAAAAAAr,,,,73AAAAAAAAAAAAAAAAAAAr,,;,73AAAAAAAAAAAA33,,,,9AAAAAAAr,,,3,,3,337377779rr9rrravAAAAAABvvnnBaAAAAAAAAAAAAaarrrrsAAAAAAAa33,373AAAAAAr,,,,73AAAAAAr3,,,,,,,,;,9AAAAAAr,;,,73AAAAAAr,,,,,3,,,,,rAAAAAAAAAAAAAAAAA",
"AAAAAAAAAAAAAAAAr3,,,73AAAAAAAAAAAAAAAAAAAr,,,;33AAAAAAAAAAAA33,,,,9AAAAAAAr,,3,37rraraaasssssaar9ravAAAAAAZvvnnBrAAAAAAAAAAAAas9rr9jAAAAAAAr3,3,73AAAAAAr,,,,73AAAAAAjrr99r73,,,,rAAAAAAr,,,,73AAAAAAj9rrr973,,,,rAAAAAAAAAAAAAAAAA",
"AAAAAAAAAAAAAAAAr3,,,73AAAAAAAAAAAAAAAAAAAr,,,,73AAAAAAAAAAAA37;,,,rAAAAAAAr,,,,3%+OOOOOOOOO+O%araravAAAAAABjvvnZaAAAAAAAAAAAAaaarrrsAAAAAAAa33,,73AAAAAAr,,3,73AAAAAAOO+O+O%3,,,,rAAAAAAr,,,,33AAAAAAOOO+OO%3,;,,aAAAAAAAAAAAAAAAAA",
"AAAAAAAAAAAAAAAAr,,,,73AAAAAAAAAAAAAAAAAAAr,,,,33AAAAAAAAAAAA37;,,,rAAAAAAAr,,,,73AAAAAAAAAAAA7srraavAAAAAABvvvvBaAAAAAAAAAAAAaarrr9jAAAAAAAa333373AAAAAAr,,,,93AAAAAAAAAAAA37,,,,rAAAAAAr,,,,33AAAAAAAAAAAA33,;,,rAAAAAAAAAAAAAAAAA",
"AAAAAAAAAAAAAAAA9,,,,73AAAAAAAAAAAAAAAAAAAr3,,,73AAAAAAAAAAAA37,,,,rAAAAAAA9,,,,73AAAAAAAAAAAA7arrrrvAAAAAABjvvvnaAAAAAAAAAAAAaarrrrsAAAAAAAr3,,,73AAAAAAr,,,,73AAAAAAAAAAAA37,,,,rAAAAAAr,,,,73AAAAAAAAAAAA37,,,39AAAAAAAAAAAAAAAAA",
"AAAAAAAAAAAAAAAAr,3,,73AAAAAAAAAAAAAAAAAAAr,,,,73AAAAAAAAAAAA33,,,;rAAAAAAAr;,,,73AAAAAAAAAAAA7arrrajAAAAAABjvjvnaAAAAAAAAAAAAaarrr9sAAAAAAAa3,,,73AAAAAAr3,3,73AAAAAAAAAAAA37,,,,rAAAAAAr,,,,73AAAAAAAAAAAA,7,,,,9AAAAAAAAAAAAAAAAA",
"AAAAAAAAAAAAAAAA93,,,73AAAAAAAAAAAAAAAAAAAr,3,,73AAAAAAAAAAAA37,,,,9AAAAAAAr,,,,73AAAAAAAAAAAA9arrrrvAAAAAABjjjvnrAAAAAAAAAAAArarrr7jAAAAAAAr33,,73AAAAAAr,,,,33AAAAAAAAAAAA37,,,,rAAAAAAr,,,,93AAAAAAAAAAAA37;;,,aAAAAAAAAAAAAAAAAA",
"AAAAAAAAAAAAAAAA9,,;,73AAAAAAAAAAAAAAAAAAAr,,,,73AAAAAAAAAAAA37,,,,9AAAAAAAa,,,373AAAAAAAAAAAA7arrrrvAAAAAAnjjjjvrAAAAAAAAAAAAara9r9sAAAAAAAr3,3,93AAAAAAr;,;,73AAAAAAAAAAAA373,,,rAAAAAAr,,,,73AAAAAAAAAAAA37,,3,rAAAAAAAAAAAAAAAAA",
"AAAAAAAAAAAAAAAAr,,,,73AAAAAAAAAAAAAAAAAAA9;,,,73AAAAAAAAAAAA37,3,,rAAAAAAA9,,,,73AAAAAAAAAAAA7a99rrjAAAAAAnjjjsvrAAAAAAAAAAAArar9rrsAAAAAAAa,,,373AAAAAAr,,,,73AAAAAAAAAAAA37,,,,9AAAAAAr,,3,73AAAAAAAAAAAA37,,,,rAAAAAAAAAAAAAAAAA",
"AAAAAAAAAAAAAAAAr,,,,73AAAAAAAAAAAAAAAAAAAr,,,,73AAAAAAAAAAAA37,,,,rAAAAAAAa,,,,73AAAAAAAAAAAA7r99rrjAAAAAAvsjsjvrAAAAAAAAAAAAarrr99sAAAAAAAr3,,,73AAAAAAr,,,,93AAAAAAAAAAAA37,,,,rAAAAAAr,,,373AAAAAAAAAAAA37,,,3rAAAAAAAAAAAAAAAAA",
"AAAAAAAAAAAAAAAAr,,,,73AAAAAAAAAAAAAAAAAAA9,,,,73AAAAAAAAAAAA37,,,,rAAAAAAAr,,,,73AAAAAAAAAAAA7r9r9rjAAAAAAvaassjrAAAAAAAAAAAArrrr99sAAAAAAAa,3,,73AAAAAA9,,,,73AAAAAAAAAAAA37,,,,rAAAAAAr,,,,73AAAAAAAAAAAA37,,,,rAAAAAAAAAAAAAAAAA",
"AAAAAAAAAAAAAAAAr,,,,73AAAAAAAAAAAAAAAAAAAr,,,,73AAAAAAAAAAAA37,,,,9AAAAAAAr,,,,7,AAAAAAAAAAAA7a9r9rjAAAAAAvaaaajrAAAAAAAAAAAAar9999sAAAAAAAr,,,,73AAAAAAr3,3,73AAAAAAAAAAAA37,,,,rAAAAAAa,,;,73AAAAAAAAAAAA37,,,,rAAAAAAAAAAAAAAAAA",
"AAAAAAAAAAAAAAAAr,,,,73AAAAAAAAAAAAAAAAAAAr33,,73AAAAAAAAAAAA37,,,,rAAAAAAAr,;;;73AAAAAAAAAAAA7r9999jAAAAAAvaaaaj9AAAAAAAAAAAAarr999sAAAAAAAr33,;33AAAAAAr,,,,73AAAAAAAAAAAA,7,,,3rAAAAAAr,,,;73AAAAAAAAAAAA,33,,,rAAAAAAAAAAAAAAAAA",
"AAAAAAAAAAAAAAAAr,,,,73AAAAAAAAAAAAAAAAAAAr,,,,73AAAAAAAAAAAA37,,,,rAAAAAAAr,;;,73AAAAAAAAAAAA3a9999jAAAAAAvrraajrAAAAAAAAAAAArr9997aAAAAAAAr,,,,73AAAAAAr,,,,73AAAAAAAAAAAA33,,,,rAAAAAAr,3,,73AAAAAAAAAAAA37,,,,rAAAAAAAAAAAAAAAAA",
"AAAAAAAAAAAAAAAA9;,,,7,AAAAAAAAAAAAAAAAAAAs777793AAAAAAAAAAAA3r7377aAAAAAAAr,,,,33AAAAAAAAAAAA7r9999jAAAAAAjrrrrs9AAAAAAAAAAAArjjsssvAAAAAAAr,,,,73AAAAAA9;;3,33AAAAAAAAAAAA37,,,,rAAAAAAjrrrra3AAAAAAAAAAAA3arrrrjAAAAAAAAAAAAAAAAA",
"AAAAAAAAAAAAAAAAr,;;,,79rrr9rrrrrraAAAAAAA&%%%&&rarrrrrrrrrrrr%%%%&%AAAAAAAr,,,,33AAAAAAAAAAAA7r9999sAAAAAAjrrrrasjjjjjjjjjjjs,+OOOOOAAAAAAAr3,,;7,AAAAAAr;,,,7,AAAAAAAAAAAA373,,,rAAAAAAOOOOOO3arrrrrrrrr9a3OOOOOOAAAAAAAAAAAAAAAAA",
"AAAAAAAAAAAAAAAAr,,;,,,,,3,,,,,,,,73AAAAAA..   +&7,,,,,,3,,,7;+.  ..AAAAAAAr,,,;73AAAAAAAAAAAA797799sAAAAAAjrrarrr9rrrrr9rr99a7AAAAAAAAAAAAAr,,,,73AAAAAAr;,,,73AAAAAAAAAAAA37,,,,rAAAAAAAAAAAA373,,3,,,,,;73AAAAAAAAAAAAAAAAAAAAAAA",
"AAAAAAAAAAAAAAAAr,,;,,,,,,,,;,3,;,73AAAAAAAAAAAA33;;;,,;,,,,73AAAAAAAAAAAAAr;,,,73AAAAAAAAAAAA3r3977sAAAAAAjr99rrr99r9999r999a7AAAAAAAAAAAAAr,,;,73AAAAAAr,,,,73AAAAAAAAAAAA373,,,rAAAAAAAAAAAA37,,3,,;,,,,73AAAAAAAAAAAAAAAAAAAAAAA",
"AAAAAAAAAAAAAAAAr,,,,,,,,,,,,,,,,,73AAAAAAAAAAAA37,,,,,,,3,,93AAAAAAAAAAAAAr,,,,33AAAAAAAAAAAA797377sAAAAAAj9rrr999r99r999999r7AAAAAAAAAAAAAr,,,,73AAAAAA9;,,,73AAAAAAAAAAAA37,,,,rAAAAAAAAAAAA37,,,,,,,,,,73AAAAAAAAAAAAAAAAAAAAAAA",
"AAAAAAAAAAAAAAAAr,,,,,,,,,,,,,,,,,93AAAAAAAAAAAA37,,,,,,,,,,73AAAAAAAAAAAAAr,,,,73AAAAAAAAAAAA7r3773sAAAAAAs999r99r9r99999999r7AAAAAAAAAAAAAr,,,,73AAAAAAr,,,,73AAAAAAAAAAAA37,,,,rAAAAAAAAAAAA37,,,,,,,,,,73AAAAAAAAAAAAAAAAAAAAAAA",
"AAAAAAAAAAAAAAAAr,,3,,,,,,,,,,3,,,73AAAAAAAAAAAA,7,,,,,3,,,,73AAAAAAAAAAAAAr,,,,73AAAAAAAAAAAA393337sAAAAAAs9999rr9999999999797AAAAAAAAAAAAA9,,3,73AAAAAAr,,,;73AAAAAAAAAAAA33,,,,rAAAAAAAAAAAA37,,;,,,,,,,73AAAAAAAAAAAAAAAAAAAAAAA",
"AAAAAAAAAAAAAAAAjrrrrr9rrrrrrrrrrra3AAAAAAAAAAAA3arrrrrrrr99a3AAAAAAAAAAAAAjrrrra,AAAAAAAAAAAA3saraavAAAAAAnsssssjssssssaassaj7AAAAAAAAAAAAAsrrrra3AAAAAAjrr9rs3AAAAAAAAAAAA,a9rr9jAAAAAAAAAAAA3ar9r99rrrrra3AAAAAAAAAAAAAAAAAAAAAAA",
"AAAAAAAAAAAAAAAAOO+OOOO+OOOOOO+OOOOOAAAAAAAAAAAAOOOOOOOOOO++OOAAAAAAAAAAAAAOOOOOOOAAAAAAAAAAAAOOOOOOOAAAAAA+OO+OOOOOO+OOOO+OOOOAAAAAAAAAAAAA++OOOOOAAAAAA+OOOOOOAAAAAAAAAAAAOOOOOO+AAAAAAAAAAAAOOO+O+OO+OOOOOAAAAAAAAAAAAAAAAAAAAAAA",
"AAAAAAAAAAAAAAAAAAAAAAAAAAAAAAAAAAAAAAAAAAAAAAAAAAAAAAAAAAAAAAAAAAAAAAAAAAAAAAAAAAAAAAAAAAAAAAAAAAAAAAAAAAAAAAAAAAAAAAAAAAAAAAAAAAAAAAAAAAAAAAAAAAAAAAAAAAAAAAAAAAAAAAAAAAAAAAAAAAAAAAAAAAAAAAAAAAAAAAAAAAAAAAAAAAAAAAAAAAAAAAAAAAAA",
"AAAAAAAAAAAAAAAAAAAAAAAAAAAAAAAAAAAAAAAAAAAAAAAAAAAAAAAAAAAAAAAAAAAAAAAAAAAAAAAAAAAAAAAAAAAAAAAAAAAAAAAAAAAAAAAAAAAAAAAAAAAAAAAAAAAAAAAAAAAAAAAAAAAAAAAAAAAAAAAAAAAAAAAAAAAAAAAAAAAAAAAAAAAAAAAAAAAAAAAAAAAAAAAAAAAAAAAAAAAAAAAAAAAA",
"AAAAAAAAAAAAAAAAAAAAAAAAAAAAAAAAAAAAAAAAAAAAAAAAAAAAAAAAAAAAAAAAAAAAAAAAAAAAAAAAAAAAAAAAAAAAAAAAAAAAAAAAAAAAAAAAAAAAAAAAAAAAAAAAAAAAAAAAAAAAAAAAAAAAAAAAAAAAAAAAAAAAAAAAAAAAAAAAAAAAAAAAAAAAAAAAAAAAAAAAAAAAAAAAAAAAAAAAAAAAAAAAAAAA",
"AAAAAAAAAAAAAAAAAAAAAAAAAAAAAAAAAAAAAAAAAAAAAAAAAAAAAAAAAAAAAAAAAAAAAAAAAAAAAAAAAAAAAAAAAAAAAAAAAAAAAAAAAAAAAAAAAAAAAAAAAAAAAAAAAAAAAAAAAAAAAAAAAAAAAAAAAAAAAAAAAAAAAAAAAAAAAAAAAAAAAAAAAAAAAAAAAAAAAAAAAAAAAAAAAAAAAAAAAAAAAAAAAAAA",
"AAAAAAAAAAAAAAAAAAAAAAAAAAAAAAAAAAAAAAAAAAAAAAAAAAAAAAAAAAAAAAAAAAAAAAAAAAAAAAAAAAAAAAAAAAAAAAAAAAAAAAAAAAAAAAAAAAAAAAAAAAAAAAAAAAAAAAAAAAAAAAAAAAAAAAAAAAAAAAAAAAAAAAAAAAAAAAAAAAAAAAAAAAAAAAAAAAAAAAAAAAAAAAAAAAAAAAAAAAAAAAAAAAAA",
"AAAAAAAAAAAAAAAAAAAAAAAAAAAAAAAAAAAAAAAAAAAAAAAAAAAAAAAAAAAAAAAAAAAAAAAAAAAAAAAAAAAAAAAAAAAAAAAAAAAAAAAAAAAAAAAAAAAAAAAAAAAAAAAAAAAAAAAAAAAAAAAAAAAAAAAAAAAAAAAAAAAAAAAAAAAAAAAAAAAAAAAAAAAAAAAAAAAAAAAAAAAAAAAAAAAAAAAAAAAAAAAAAAAA",
"AAAAAAAAAAAAAAAAAAAAAAAAAAAAAAAAAAAAAAAAAAAAAAAAAAAAAAAAAAAAAAAAAAAAAAAAAAAAAAAAAAAAAAAAAAAAAAAAAAAAAAAAAAAAAAAAAAAAAAAAAAAAAAAAAAAAAAAAAAAAAAAAAAAAAAAAAAAAAAAAAAAAAAAAAAAAAAAAAAAAAAAAAAAAAAAAAAAAAAAAAAAAAAAAAAAAAAAAAAAAAAAAAAAA",
"AAAAAAAAAAAAAAAAAAAAAAAAAAAAAAAAAAAAAAAAAAAAAAAAAAAAAAAAAAAAAAAAAAAAAAAAAAAAAAAAAAAAAAAAAAAAAAAAAAAAAAAAAAAAAAAAAAAAAAAAAAAAAAAAAAAAAAAAAAAAAAAAAAAAAAAAAAAAAAAAAAAAAAAAAAAAAAAAAAAAAAAAAAAAAAAAAAAAAAAAAAAAAAAAAAAAAAAAAAAAAAAAAAAA"
};
