/* XPM */
static char *minia_gun[] = {
/* columns rows colors chars-per-pixel */
"47 32 29 1 ",
"  c black",
". c #0B0B0B",
"X c #100810",
"o c #101010",
"O c #181818",
"+ c #2B230F",
"@ c gray13",
"# c #292829",
"$ c gray16",
"% c gray19",
"& c gray20",
"* c gray22",
"= c gray23",
"- c #4B371B",
"; c #5F4323",
": c gray26",
"> c gray28",
", c #4A494A",
"< c gray29",
"1 c gray33",
"2 c #5A595A",
"3 c gray36",
"4 c #656565",
"5 c gray43",
"6 c #717171",
"7 c #727272",
"8 c #9B633B",
"9 c #818181",
"0 c None",
/* pixels */
"0000000..000000000000000000000000000000000000..",
"0000000..000000000000000000000000000000000000..",
"0000...>>0000000000000000000000000000000000....",
"0000...>>0000000000000000000000000000000000....",
"0000...>>0000000000000000000000000000000000....",
"00  666>,66:>776::33$$11111&&3344444444444411$$",
"00  666>>66::666::33$$11111&&3344444444444411$$",
"    %%%oo**OO***OO==@@OOOOOOO==,<<33445555599<<",
"    %%%oo**OO***OO==@@OOOOOOO==,<<33445555599<<",
"00                         ....OOOOOOO@@@@@@@OO",
"00                         ....OOOOOOO@@@@@@@OO",
"00  OOOOOOO  ...$$$$&&&&&&&OOOOOOOOOOO@@@@@@@00",
"00  OOOOOOO  ...$$$$&&&&&&&OOOOOOOOOOO@@@@@@@00",
"00  OOOOOOO  ...$$$$&&&&&&&OOOOOOOOOOO@@@@@@@00",
"0000...  ..     OO       $$OO000000000000000000",
"0000...  ..     OO       $$OO000000000000000000",
"0000   ;;----XXX  <<00000@@00000000000000000000",
"0000   ;;----XXX  <<00000@@00000000000000000000",
"0000XXX++++++OOOOOOOOOOOO0000000000000000000000",
"0000XXX++++++OOOOOOOOOOOO0000000000000000000000",
"0000XXX++++++OOOOOOOOOOOO0000000000000000000000",
"00@@888;;----OOO0000000000000000000000000000000",
"00@@888;;----OOO0000000000000000000000000000000",
"00@@+++++++++   0000000000000000000000000000000",
"00@@+++++++++   0000000000000000000000000000000",
"00@@;;;----OO0000000000000000000000000000000000",
"00@@;;;----OO0000000000000000000000000000000000",
"@@+++++++++  0000000000000000000000000000000000",
"@@+++++++++  0000000000000000000000000000000000",
"@@+++++++++  0000000000000000000000000000000000",
"@@oo#$$22,,oo0000000000000000000000000000000000",
"@@oX#$$22,,oo0000000000000000000000000000000000"
};
