/* XPM */
static char *minia_shootgun[] = {
/* columns rows colors chars-per-pixel */
"84 26 12 1 ",
"  c gray9",
". c #252525",
"X c #282828",
"o c #2C2C2C",
"O c #2F2F2F",
"+ c gray21",
"@ c #3A3A3A",
"# c gray26",
"$ c #494949",
"% c gray30",
"& c gray34",
"* c None",
/* pixels */
"**************##**************************************************************oo..**",
"**************##**************************************************************+o..**",
"********$$++##$$%%&&&&&&%%$$######$$$$##$$$$$$$$$$$$$$$$$$$$$$$$$$$$$$$$$$$$$$$$$$+o",
"********$$++##$$%%&&&&&&%%$$######$$$$##$$$$$$$$$$$$$$$$$$$$$$$$$$$$$$$$$$$$$$$$$$oo",
"****$$$$&&oo++##$$%%%%%%$$++      ++$$+o++++++++++++++++++++++++++++++++o+o+oo+o+ooo",
"****$$$$&&oo++##$$%%%%%%$$++      ++$$oo++++++++++++++++++++++++++++++++ooo++ooooo++",
"**$$&&XX  oo++##$$$$$$$$$$##++++++####@+######++XXoo++o++oooXX++################  **",
"**$$&&XX  oo++##$$$$$$$$$$##++++++####++######+@XX+ooooo+o+oXX++################  **",
"$$&&XX####++oo++##################++++oo+++++++o  XXXXXX..XX  o+++++++++++++++++  **",
"$$&&XX####++oo++##################+++@+o++++++oo  XXXXXXXXXX  oo++++++++++++++++  **",
"&&XX##++++##++++++++++++++++++++++o+ooXX********              ******************  **",
"&&XX##++++##++++++++++++++++++++++ooo+XX********              ******************  **",
"**o+++.Xo+@@++****++oo****************************        XX************************",
"**oo++.Xoo@@++****++++****************************        XX************************",
"****o+  XX++##++oo++******************************  XXXXXX**************************",
"****o+  XX++##+++o++******************************  XXXXXX**************************",
"**o+  ..oo++************************************  XXo+o+oo**************************",
"**oo  XX+o++************************************  XXo+ooo+**************************",
"**++  XX++************************************  X.+o++++****************************",
"**oo  XX++************************************  X.+o++++****************************",
"o+  XX+o++************************************  XXXXo+******************************",
"oo  XX+o++************************************  XXXXoo******************************",
"+o    ..++**************************************    ********************************",
"+o    XX++**************************************    ********************************",
"**o+oo@+****************************************************************************",
"**ooo+++****************************************************************************"
};
