/* XPM */
static char *mina_rifle[] = {
/* columns rows colors chars-per-pixel */
"116 30 245 2 ",
"   c gray2",
".  c #060606",
"X  c #070707",
"o  c #0F0804",
"O  c #090909",
"+  c gray4",
"@  c #0B0B0B",
"#  c #0C0C0C",
"$  c gray5",
"%  c #0E0E0E",
"&  c gray6",
"*  c #130905",
"=  c #1F0F09",
"-  c #11100F",
";  c #101010",
":  c #111111",
">  c gray7",
",  c #131313",
"<  c #131214",
"1  c gray8",
"2  c #151415",
"3  c #151515",
"4  c #161616",
"5  c #1B1812",
"6  c #181818",
"7  c #1A191A",
"8  c gray10",
"9  c #1B1B1B",
"0  c #1C1B1D",
"q  c gray11",
"w  c #1D1D1D",
"e  c #1D1C1E",
"r  c #1E1C1F",
"t  c #1F1D1F",
"y  c #1E1E1E",
"u  c gray12",
"i  c #200F09",
"p  c #22100A",
"a  c #25130B",
"s  c #27140C",
"d  c #28150D",
"f  c #2B160D",
"g  c #271A08",
"h  c #251C0F",
"j  c #2E180F",
"k  c #301A08",
"l  c #311E0A",
"z  c #361E08",
"x  c #371E08",
"c  c #371F08",
"v  c #2C1912",
"b  c #2D1A12",
"n  c #341C10",
"m  c #311D15",
"M  c #391E12",
"N  c #2F250C",
"B  c #31210D",
"V  c #382008",
"C  c #392208",
"Z  c #3A2208",
"A  c #3D2308",
"S  c #3F2408",
"D  c #362A0A",
"F  c #3B2D08",
"G  c #382B0C",
"H  c #3A2210",
"J  c #3B2114",
"K  c #3D2214",
"L  c #3F2617",
"P  c #372C13",
"I  c #312914",
"U  c #37221A",
"Y  c #382219",
"T  c #3D271F",
"R  c #3E2A1B",
"E  c #1E1D20",
"W  c #201E20",
"Q  c #211F21",
"!  c gray13",
"~  c #222222",
"^  c #252423",
"/  c #272523",
"(  c #232326",
")  c gray14",
"_  c #252525",
"`  c #252427",
"'  c #252527",
"]  c #272426",
"[  c #262427",
"{  c gray15",
"}  c #272727",
"|  c #282523",
" . c #292523",
".. c #252528",
"X. c #2A2A2A",
"o. c gray17",
"O. c #2E2A28",
"+. c gray18",
"@. c #3E2820",
"#. c #3F2921",
"$. c gray19",
"%. c #313131",
"&. c #323131",
"*. c #323232",
"=. c gray20",
"-. c gray23",
";. c #402508",
":. c #412708",
">. c #442708",
",. c #472808",
"<. c #412D08",
"1. c #492D08",
"2. c #4A2C08",
"3. c #4A2D08",
"4. c #4D2D08",
"5. c #4E2D08",
"6. c #4D2E08",
"7. c #4F2E08",
"8. c #532F08",
"9. c #4D3108",
"0. c #49300E",
"q. c #533108",
"w. c #543008",
"e. c #573008",
"r. c #553208",
"t. c #533608",
"y. c #563508",
"u. c #553608",
"i. c #553708",
"p. c #573608",
"a. c #563708",
"s. c #583208",
"d. c #583408",
"f. c #5A3408",
"g. c #5B3408",
"h. c #593708",
"j. c #5A3608",
"k. c #5C3708",
"l. c #583808",
"z. c #583A08",
"x. c #593B08",
"c. c #5A3A08",
"v. c #5B3A08",
"b. c #5C3908",
"n. c #5D3908",
"m. c #5F3808",
"M. c #5E3909",
"N. c #5E3A08",
"B. c #5F3A08",
"V. c #5C380A",
"C. c #5F3D08",
"Z. c #422713",
"A. c #412516",
"S. c #472C16",
"D. c #452719",
"F. c #432818",
"G. c #482F1B",
"H. c #4C2A1C",
"J. c #4E2B1D",
"K. c #4A2C1C",
"L. c #4C2C1C",
"P. c #4D2C1C",
"I. c #4F2E1D",
"U. c #502E1E",
"Y. c #512F1E",
"T. c #532F1F",
"R. c #4C311A",
"E. c #5B3912",
"W. c #50331D",
"Q. c #50341D",
"!. c #603708",
"~. c #633908",
"^. c #603A08",
"/. c #613B08",
"(. c #603C08",
"). c #623D08",
"_. c #633D08",
"`. c #603E08",
"'. c #623E08",
"]. c #633F08",
"[. c #663D08",
"{. c #412A22",
"}. c #412B23",
"|. c #442E25",
" X c #492F24",
".X c #493125",
"XX c #533321",
"oX c #543120",
"OX c #573221",
"+X c #553522",
"@X c #593322",
"#X c #5A3422",
"$X c #5B3825",
"%X c #693C26",
"&X c #693F27",
"*X c #6E3E2B",
"=X c #614008",
"-X c #624008",
";X c #644108",
":X c #6B4208",
">X c #6D4309",
",X c #684408",
"<X c #6B4708",
"1X c #6D4508",
"2X c #6C4808",
"3X c #6E4808",
"4X c #6F4808",
"5X c #6D4A08",
"6X c #704508",
"7X c #714A08",
"8X c #774D08",
"9X c #784F09",
"0X c #6F4511",
"qX c #67422D",
"wX c #68432D",
"eX c #6C432C",
"rX c #68442E",
"tX c #6F452F",
"yX c #6D4630",
"uX c #6E4831",
"iX c #724A33",
"pX c #744C35",
"aX c #764D35",
"sX c #754D36",
"dX c #774F37",
"fX c #7F4F37",
"gX c #795139",
"hX c #7D5339",
"jX c #7D533B",
"kX c #7D543B",
"lX c #7F553C",
"zX c gray25",
"xX c #414141",
"cX c #5B5B5B",
"vX c gray36",
"bX c DimGray",
"nX c gray43",
"mX c #80553C",
"MX c #82563D",
"NX c #83573D",
"BX c #83573E",
"VX c #84573E",
"CX c #85573E",
"ZX c #86593F",
"AX c None",
/* pixels */
"AXAXAXAXAXAXAXAXAXAXAXAXAXAXAXAXAXAXAXAXAXAXAXAXAXAXAXAXAXAXAXAXAXAXAXAXAXAXAXAXAXAXAXAXAXAXAXAXAXAXAXAXAXAXAXAXAXAXr r W W W ! 0 0 0 0 W W .._ W E AXAXAXAXAXAXAXAXAXAXAXAXAXAXAXAXAXAXAXAXAXAXAXAXAXAXAXAXAXAXAXAXAXAXAXAXAXAXAXAXAXAX",
"AXAXAXAXAXAXAXAXAXAXAXAXAXAXAXAXAXAXAXAXAXAXAXAXAXAXAXAXAXAXAXAXAXAXAXAXAXAXAXAXAXAXAXAXAXAXAXAXAXAXAXAXAXAXAXAXAXAXr r W W W W 0 0 E 0 0 W ..` E E AXAXAXAXAXAXAXAXAXAXAXAXAXAXAXAXAXAXAXAXAXAXAXAXAXAXAXAXAXAXAXAXAXAXAXAXAXAXAXAXAXAX",
"AXAXAXAXAXAXAXAXAXAXAXAXAXAXAXAXAXAXAXAXAXAXAXAXAXAXAXAXAXAXAXAXAXAXAXAXAXAXAXAXAXAXAXAXAXAX-.-.AXAXAXAXAXAXAXAXAXAX0 0 7 7 1 1 4 4 , , ] ] ( ( AXAXAXAXAXAXAXAXAXAXAXAXAXAXAXAXAXAXAXAXAXAXAXAXAXAXAXAXAXAXAXAXAXAXAXAX-.-.AXAXAXAXAXAX",
"AXAXAXAXAXAXAXAXAXAXAXAXAXAXAXAXAXAXAXAXAXAXAXAXAXAXAXAXAXAXAXAXAXAXAXAXAXAXAXAXAXAXAXAXAXAX-.-.AXAXAXAXAXAXAXAXAXAX0 0 7 7 4 4 < 4 < 4 ] ] ( ( AXAXAXAXAXAXAXAXAXAXAXAXAXAXAXAXAXAXAXAXAXAXAXAXAXAXAXAXAXAXAXAXAXAXAXAX-.-.AXAXAXAXAXAX",
"AXAXAXAXAXAXAXAXAXAXAXAXAXAXAXAXAXAXAXAXAXAXAXAXAXAXAXAXAXAXAXAXAXAXAXAXAXAXAXAXAXAXAXAX+.+.+.+., , AXAXAXAX, , AXAXAXAXAXAXAXAXAXAXAXAX_  .....AXAXAXAXAXAXAXAXAXAXAXAXAXAXAXAXAXAXAXAXAXAXAXAXAXAXAXAXAXAXAXAXAXAXAXAX+.+.AXAXAXAXAXAX",
"AXAXAXAXAXAXAXAXAXAXAXAXAXAXAXAXAXAXAXAXAXAXAXAXAXAXAXAXAXAXAXAXAXAXAXAXAXAXAXAXAXAXAXAX+.+.+.+., , AXAXAXAX, , AXAXAXAXAXAXAXAXAXAXAXAX|  .....AXAXAXAXAXAXAXAXAXAXAXAXAXAXAXAXAXAXAXAXAXAXAXAXAXAXAXAXAXAXAXAXAXAXAXAX+.+.AXAXAXAXAXAX",
"AXAXAXAXAXAXAXAXAXAXAXAXAXAXAXAXAXAXAXAXAXAXAXAXAXAXAXAXAXAXAXAXAXAXAXAXS S S S G G 5.5.h h nXnX, , , , , , , , , , , , , , =.=.=.=.u u | | ` [ rXrXjXhXmXlXdXdXiXiXpXpXrXrXuXuXdXdXiXpXaXaXrXrXiXuXdXpXyXyX&X&X X X! _ ! ! AXAXAXAXAXAX",
"AXAXAXAXAXAXAXAXAXAXAXAXAXAXAXAXAXAXAXAXAXAXAXAXAXAXAXAXAXAXAXAXAXAXAXAXS S S S G G 9.5.h h nXnX, , , , , , , , , , , , , 4 =.=.=.=.u r | | ` ` rXrXhXhXlXlXdXdXiXiXdXdXrXrXuXuXaXaXiXpXaXaXrXrXyXuXiXpXyXyX&X&X X X! ! _ ! AXAXAXAXAXAX",
"AXAXAXAXAXAXAXAXAXAXAXAXAXAXAXAXAXAXAXAXAXAXc z Z S S S x x g g k k S S 8.8.g.g.s.s.2.2.B B bXbXX.X._ _ , , , , , , , , , , O O O O O O _  .` ` zXzXwXwXjXjXsXsXrXqXXX+XK K $X$XsXsXqXqX+X+XJ J $X$XdXjXpXpXtXtX&X%XXXXXK.K.AXAXAXAXAXAX",
"AXAXAXAXAXAXAXAXAXAXAXAXAXAXAXAXAXAXAXAXAXAXc c S S S >.x x g g k k S S 8.8.g.g.s.s.2.2.B B bXbXX.o._ ^ , , , , , , , , , , O O O O O O  . ..._ zXzXwXwXhXjXsXsXrXqX+X+XK K $X$XsXsXqXqX+X+XA.J $X$XgXdXpXpXtXtX%X%XoXoXK.K.AXAXAXAXAXAX",
"s s s s s s V V c c Z Z Z Z c c x x x x Z c 5.5.q.r.5.5.e.e.,.,.d.d.r.8./.!.!.!.q.q.>.>.l l vXvX9 9 8 8 9 9 6 6 ! ! r q 6 6 6 6 6 6 6 6 O.O._ ..&.&.qXqXhXhXCXCXCXCXmXmXZXZXCXmXCXCXmXZXZXmXCXmXkXkXjXjXdXpXfXfXeXeXD.D.=.%.%.%.%.%.+.+.",
"s s s s s s V V c c Z Z C Z c c x x x x c c 5.5.r.r.5.8.e.e.,.,.d.s.r.8.g./.!.!.q.r.>.>.l l vXvXr 9 9 9 9 9 6 6 ! ! r q 6 6 6 6 6 6 6 6 O.O._ _ &.&.qXqXhXhXCXCXmXCXmXmXZXZXCXCXCXCXZXmXmXZXmXmXkXkXjXjXaXpXfXfXeXeXD.D.%.=.%.=.%.%.+.+.",
"s s v./.6X6X8X8X8X8X~.~.d.g.5.5.,X>X_._.c.g././.`./.`.~.`.[.d.v.v.v././.s.d.1.1.S S 1 1 , , ! ! 9 9 _ _ cXcXcXcXxXxX%.%.6 6 q q ! ! } _ o.o.$.$.^ ^ P.P.*X*X#X#X@X@XJ.H.@X@XW.U.oXoXW.T.U.U.I.I.F.F.U.U.A.A.P.P.J.J.j j ( ! ! ! _ _ _ X.",
"s s v./.6X6X8X8X8X9X~.~.d.d.5.5.>X>X_._.d.d./.~././.`.[.[.[.v.g.!.v././.c.g.1.1.S S 1 1 , , ! ! 9 w _ _ cXcXcXcXxXxX%.%.6 6 q q ! u _ } o.o.$.$.^ ^ H.P.*X*X#X#X@XXXJ.J.@X@XU.U.oXoXU.I.U.U.I.U.F.F.U.U.A.A.P.P.J.I.j j ! _ ! _ _ _ X._ ",
">.>.1X1X7X7Xm.m.6X6X[.[.y.y.c.c.v.v.c.d.v.v.g.v.`.[.`./.v.v.i.d.1.1.P P 1.1.AXAXAXAXAXAXAXAX- - G.G.5 5 + + cXcX# # # # +.+.o.o._ _ q q h ( _ _ s s M J T.T.M M l n f f s s s s s s s a d s s s s s p p = = = = = i * * , , , , AXAXAXAX",
"S >.1X1X7X7XC.m.6X6X[.[.y.y.v.c.v.v.d.d./.v.v.v.`.`.`./.v.v.d.y.1.1.P P 1.1.AXAXAXAXAXAXAXAX- - G.G.5 5 + + cXcX# # # # +.+.o.o.( ( E E E E _ _ s s J J T.W.M M n n f f s s s s s s a a d s s s s p p p = = = = i i * * , , , , AXAXAXAX",
"S :.8X8X5X5Xv.v.`.[.5X7X`.`.v.v.5X5X,X,X`.`.[.-X<X;Xc.c.F F AXAXAXAXAXAXAXAXAXAXAXAXAXAXb b Z.Z.>X0XR L O O AXAXAXAXAXAX, & u r _ } %.$.X.X.o o AXAXAXAXAXAXAXAXAXAXAXAXAXAXAXAXAXAXAXAXAXAXAXAXAXAXAXAXAXAXAXAXAXAXAXAXAXAXAXAXAXAXAXAX",
":.:.8X8X5X5Xv./.`.`.7X1X[.~.v.v.5X6X,X,X`.[.[.-X;X<Xc.y.F F AXAXAXAXAXAXAXAXAXAXAXAXAXAXv b Z.A.0X0XL L O O AXAXAXAXAXAX# # u u X._ $.$.X.X.o * AXAXAXAXAXAXAXAXAXAXAXAXAXAXAXAXAXAXAXAXAXAXAXAXAXAXAXAXAXAXAXAXAXAXAXAXAXAXAXAXAXAXAXAX",
"9.1.1X1X7X7X6X1X-X-Xc.c.<X<X-X;X1X<X<X<Xx.x.9.9.I I AXAXAXAXAXAXAXAXAXAXAXAXAXAXAXAXv v H H M.M.S.S.|.|.# # , , AXAX# # +.+.X.X.! ! 6 6 1 1 1 6 AXAXAXAXAXAXAXAXAXAXAXAXAXAXAXAXAXAXAXAXAXAXAXAXAXAXAXAXAXAXAXAXAXAXAXAXAXAXAXAXAXAXAXAX",
"1.1.1X1X7X7X1X1X-X-Xc.c.<X<X;X;X5X5X<X<Xx.i.9.9.I I AXAXAXAXAXAXAXAXAXAXAXAXAXAXAXAXv v H H !.v.S.S.|.|.# + , , AXAX& # +.+.X.X.! ! 6 6 1 8 1 1 AXAXAXAXAXAXAXAXAXAXAXAXAXAXAXAXAXAXAXAXAXAXAXAXAXAXAXAXAXAXAXAXAXAXAXAXAXAXAXAXAXAXAXAX",
"1X1X8X8X5X5X-X-Xx.x.C.C.C.-Xi.i.y.i.N N AXAXAXAXAXAXAXAXAXAXAXAXAXAXAXAXAXAXAXAXb v H H g./.R.R.}.}.b b AXAX+ # + + AXAX& & , , , , , 1 1 1 & & AXAXAXAXAXAXAXAXAXAXAXAXAXAXAXAXAXAXAXAXAXAXAXAXAXAXAXAXAXAXAXAXAXAXAXAXAXAXAXAXAXAXAXAX",
"1X1X8X9X5X5X-X-Xx.c.C.C.C.C.i.y.i.y.N N AXAXAXAXAXAXAXAXAXAXAXAXAXAXAXAXAXAXAXAXv v H H /.v.R.R.}.}.b b AXAX# + + + AXAX& & , - , , , < 4 1 & & AXAXAXAXAXAXAXAXAXAXAXAXAXAXAXAXAXAXAXAXAXAXAXAXAXAXAXAXAXAXAXAXAXAXAXAXAXAXAXAXAXAXAXAX",
"9X9XE.E.Q.Q.-X=Xi.c.9.9.D D AXAXAXAXAXAXAXAXAXAXAXAXAXAXAXAXAXAXAXAXAXAXAXAXm m Y Y V.V.Q.Q.T T s d AXAXAXAXAXAXAXAXAXAXAXAX# & & & , & , , @ @ AXAXAXAXAXAXAXAXAXAXAXAXAXAXAXAXAXAXAXAXAXAXAXAXAXAXAXAXAXAXAXAXAXAXAXAXAXAXAXAXAXAXAXAX",
"9X9XE.E.W.R.=X=Xi.i.9.9.D D AXAXAXAXAXAXAXAXAXAXAXAXAXAXAXAXAXAXAXAXAXAXAXAXm m Y U V.V.Q.Q.T T d d AXAXAXAXAXAXAXAXAXAXAXAX& # # & # & & , @ @ AXAXAXAXAXAXAXAXAXAXAXAXAXAXAXAXAXAXAXAXAXAXAXAXAXAXAXAXAXAXAXAXAXAXAXAXAXAXAXAXAXAXAXAX",
">X>XR R 0.0.<.<.AXAXAXAXAXAXAXAXAXAXAXAXAXAXAXAXAXAXAXAXAXAXAXAXAXAXAXAXAXAXm m R #. X.X}.}.#.#.AXAXAXAXAXAXAXAXAXAXAXAXAXAX+ # @ @ # # # # O O AXAXAXAXAXAXAXAXAXAXAXAXAXAXAXAXAXAXAXAXAXAXAXAXAXAXAXAXAXAXAXAXAXAXAXAXAXAXAXAXAXAXAXAX",
">X>XR R 0.0.<.<.AXAXAXAXAXAXAXAXAXAXAXAXAXAXAXAXAXAXAXAXAXAXAXAXAXAXAXAXAXAXm m T T .X.X}.}.#.#.AXAXAXAXAXAXAXAXAXAXAXAXAXAX# + @ @ # # & # O O AXAXAXAXAXAXAXAXAXAXAXAXAXAXAXAXAXAXAXAXAXAXAXAXAXAXAXAXAXAXAXAXAXAXAXAXAXAXAXAXAXAXAXAX",
"AXAXt.t.<.<.AXAXAXAXAXAXAXAXAXAXAXAXAXAXAXAXAXAXAXAXAXAXAXAXAXAXAXAXAXAXAXAXAXAXU U }.}.{.#.AXAXAXAXAXAXAXAXAXAXAXAXAXAXAXAXX X . X . . O X @ @ AXAXAXAXAXAXAXAXAXAXAXAXAXAXAXAXAXAXAXAXAXAXAXAXAXAXAXAXAXAXAXAXAXAXAXAXAXAXAXAXAXAXAXAX",
"AXAXt.t.<.<.AXAXAXAXAXAXAXAXAXAXAXAXAXAXAXAXAXAXAXAXAXAXAXAXAXAXAXAXAXAXAXAXAXAXU U }.}.#.#.AXAXAXAXAXAXAXAXAXAXAXAXAXAXAXAXX X . . . . . X @ @ AXAXAXAXAXAXAXAXAXAXAXAXAXAXAXAXAXAXAXAXAXAXAXAXAXAXAXAXAXAXAXAXAXAXAXAXAXAXAXAXAXAXAXAX",
"AXAXAXAXAXAXAXAXAXAXAXAXAXAXAXAXAXAXAXAXAXAXAXAXAXAXAXAXAXAXAXAXAXAXAXAXAXAXAXAXAXAXAXAXAXAXAXAXAXAXAXAXAXAXAXAXAXAXAXAXAXAXX . . . .   . . AXAXAXAXAXAXAXAXAXAXAXAXAXAXAXAXAXAXAXAXAXAXAXAXAXAXAXAXAXAXAXAXAXAXAXAXAXAXAXAXAXAXAXAXAXAX",
"AXAXAXAXAXAXAXAXAXAXAXAXAXAXAXAXAXAXAXAXAXAXAXAXAXAXAXAXAXAXAXAXAXAXAXAXAXAXAXAXAXAXAXAXAXAXAXAXAXAXAXAXAXAXAXAXAXAXAXAXAXAX. . . . . . . . AXAXAXAXAXAXAXAXAXAXAXAXAXAXAXAXAXAXAXAXAXAXAXAXAXAXAXAXAXAXAXAXAXAXAXAXAXAXAXAXAXAXAXAXAXAX"
};
