/* XPM */
static char *arrow[] = {
/* columns rows colors chars-per-pixel */
"25 17 38 1 ",
"  c #292B0F",
". c #3C350E",
"X c #282A10",
"o c #2F2B18",
"O c #37281E",
"+ c #3D3C13",
"@ c #35301B",
"# c #393918",
"$ c #4D390D",
"% c #443C10",
"& c #413E1E",
"* c #462E28",
"= c #413624",
"- c #433E23",
"; c #443F23",
": c #463A26",
"> c #473B27",
", c #4B3729",
"< c #4B372A",
"1 c #4C4714",
"2 c #4A4917",
"3 c #4F4B15",
"4 c #41431A",
"5 c #424418",
"6 c #43451B",
"7 c #444719",
"8 c #44441D",
"9 c #504B15",
"0 c #574C14",
"q c #5A4811",
"w c #584D14",
"e c #68470F",
"r c #604D13",
"t c #624E12",
"y c #6A4E12",
"u c #6A4F12",
"i c #444120",
"p c None",
/* pixels */
"ppppppppppppppppppppppppp",
"pppppppppppppeppppppppppp",
"pppppppppppppuu$ppppppppp",
"ppppppppppppptttqpppppppp",
"p............0wwww%pppppp",
"p3399999999999999991ppppp",
"p22222222222222222222+ppp",
"p7777777777777777777775Xp",
"p6666666666666666666664Xp",
"p88888888888888888888#ppp",
"piiiiiiiiiiiiiiiiii&ppppp",
"poooooooooooo-;;;-@pppppp",
"ppppppppppppp::>=pppppppp",
"ppppppppppppp<<Oppppppppp",
"ppppppppppppp*ppppppppppp",
"ppppppppppppppppppppppppp",
"ppppppppppppppppppppppppp"
};
