/* XPM */
static char *exit[] = {
/* columns rows colors chars-per-pixel */
"137 65 96 2 ",
"   c black",
".  c #484848",
"X  c #494949",
"o  c #4A4A4B",
"O  c #4B4B4B",
"+  c #4C4C4C",
"@  c gray30",
"#  c #4E4E4E",
"$  c gray31",
"%  c #505050",
"&  c #515151",
"*  c gray32",
"=  c #535353",
"-  c gray33",
";  c #555555",
":  c #565656",
">  c #606060",
",  c gray44",
"<  c gray47",
"1  c #797979",
"2  c gray48",
"3  c #7B7B7B",
"4  c #7C7C7C",
"5  c gray49",
"6  c #7E7E7E",
"7  c gray50",
"8  c #808080",
"9  c #818181",
"0  c gray51",
"q  c #838383",
"w  c #848484",
"e  c gray52",
"r  c #868686",
"t  c #888888",
"y  c #898989",
"u  c #8B8B8B",
"i  c #959595",
"p  c #979797",
"a  c #989898",
"s  c #9A9A9A",
"d  c gray64",
"f  c #B4B4B4",
"g  c gray71",
"h  c #C1C1C1",
"j  c gray76",
"k  c #C3C3C3",
"l  c #C6C6C6",
"z  c gray78",
"x  c #C8C8C8",
"c  c gray79",
"v  c #CACACA",
"b  c #CACACB",
"n  c #CBCBCB",
"m  c gray80",
"M  c #CDCDCD",
"N  c #CECECE",
"B  c #CECECF",
"V  c gray81",
"C  c #D0D0D0",
"Z  c gray82",
"A  c #D1D1D2",
"S  c #D2D2D2",
"D  c #D2D2D3",
"F  c LightGray",
"G  c gray83",
"H  c #D5D5D5",
"J  c gray84",
"K  c #D7D7D7",
"L  c #D8D8D8",
"P  c gray85",
"I  c #DADADA",
"U  c gray86",
"Y  c gainsboro",
"T  c #DDDDDD",
"R  c gray87",
"E  c #DFDFDF",
"W  c gray88",
"Q  c #E1E1E1",
"!  c #E2E2E2",
"~  c gray89",
"^  c #E4E4E4",
"/  c gray90",
"(  c #E9E9E9",
")  c #EAEAEA",
"_  c gray92",
"`  c #ECECEC",
"'  c gray93",
"]  c #EEEEEE",
"[  c #EFEFEF",
"{  c gray94",
"}  c #F1F1F1",
"|  c gray95",
" . c #F3F3F3",
".. c #F4F4F4",
"X. c gray96",
"o. c None",
/* pixels */
"o.                                                                        o.o.o.o.o.o.o.o.o.                  o.o.o.o.o.o.o.o.o.o.o.o.o.o.o.o.o.o.                  o.o.o.o.o.o.o.o.o.                  o.o.o.o.o.o.o.o.o.                                                      o.",
"  m _ _ _ _ _ _ _ ` _ _ ` ` ` ` ` _ _ _ _ ` _ _ _ _ ` ` ` _ _ _ _ _ ` ` `   o.o.o.o.o.o.o.  m ` ` ` ` ` ` ` `   o.o.o.o.o.o.o.o.o.o.o.o.o.o.o.o.  F ` ` ` ` ` { ` {   o.o.o.o.o.o.o.  F ` ` _ _ ` ` ` {   o.o.o.o.o.o.o.  m _ _ ` _ _ _ _ _ _ _ _ _ ` ` _ _ _ _ ` ` ` ` ` ` ` `   ",
"  2 z c m c c c m c c c m m c c m c c m c m m c c c m c c c c c c c m c P   o.o.o.o.o.o.o.  5 m m m m m m m Y   o.o.o.o.o.o.o.o.o.o.o.o.o.o.o.o.  5 m m m m m m m Y   o.o.o.o.o.o.o.  2 c c c c c c c P   o.o.o.o.o.o.o.  2 c m m m c c c z z c c c c c c m c c m m m c c m c P   ",
"  2 c c m c c c m m c c m c c c c c m m m m m m m c m c m c z c c c c c P   o.o.o.o.o.o.o.  2 c m m m c c c P   o.o.o.o.o.o.o.o.o.o.o.o.o.o.o.o.  5 m m m m c F m P   o.o.o.o.o.o.o.  2 c c m c c c c P   o.o.o.o.o.o.o.  5 m m m m m c c c c c c m c c c m c c c m c c c c m P   ",
"  2 c c c m c m m m c m m m c c m c m c c c c m m c m c m c c c c m m c P   o.o.o.o.o.o.o.  2 m m m m m c m Y   o.o.o.o.o.o.o.o.o.o.o.o.o.o.o.o.  8 F m F m F m m Y   o.o.o.o.o.o.o.  2 c c c c c c m P   o.o.o.o.o.o.o.  5 c m m m m c m c c c c m m c m c m m m c c c c m c P   ",
"  2 c c c m c m c m m m m m m m m c c c c c c c m m m m c c z c c c m m P   o.o.o.o.o.o.o.  5 c m m m m m m P   o.o.o.o.o.o.o.o.o.o.o.o.o.o.o.o.  5 m m F m F m F Y   o.o.o.o.o.o.o.  5 c c c c c c m P   o.o.o.o.o.o.o.  5 c m m c c m m m c c c c m m m m c m m m m m m m c P   ",
"  5 c c c m m m c m c m m c m c c m c c c z c c c m m m c c c c m m m c P   o.o.o.o.o.o.o.  5 c m m m m m m Y   o.o.o.o.o.o.o.o.o.o.o.o.o.o.o.o.  5 m F F m m m m Y   o.o.o.o.o.o.o.  2 c c c c m c c P   o.o.o.o.o.o.o.  2 c m m m c c m m m c c c c m m m c m m m m m c m m P   ",
"  5 m m c c m m m m c c m m c c c m m m c c c c c c c m m c c m m c c c P   o.o.o.o.o.o.o.  2 m m m m m m m Y   o.o.o.o.o.o.o.o.o.o.o.o.o.o.o.o.  5 m F F F m F m Y   o.o.o.o.o.o.o.  2 c c c m m c c P   o.o.o.o.o.o.o.  2 c c m c m m m m c m c m m m m m c c c m c c c c c P   ",
"  2 m m m c m m m m c m m c c c c c c c m c m c m c c m m c m m m c c c P   o.o.o.o.o.o.o.  2 m m m m F m m Y   o.o.o.o.o.o.o.o.o.o.o.o.o.o.o.o.  8 F F F F m m F U   o.o.o.o.o.o.o.  3 c c n c m m c P   o.o.o.o.o.o.o.  2 c c m m m c m m c m m c c m m m m m c m c c c c c P   ",
"  2 c m m c m c c g y @ @ @ @ @ O @ @ @ @ @ @ @ @ @ O @ @ O O @ O @ @ O a   o.o.o.o.o.o.o.  5 m m F m m m F Y   o.o.o.o.o.o.o.o.o.o.o.o.o.o.o.o.  8 F F F F F F F Y   o.o.o.o.o.o.o.  2 n c m m c m m P   o.o.o.o.o.o.o.  O @ @ @ @ @ @ @ > u m m c m m c c g y + @ @ @ + + O p   ",
"  2 m m c c m c c h                                                       o.o.o.o.o.o.o.o.  5 m F m F m m m Y   o.o.o.o.o.o.o.o.o.o.o.o.o.o.o.o.  8 K F K F F F F Y   o.o.o.o.o.o.o.  5 m m m c c c c P   o.o.o.o.o.o.o.o.                  , c c m m c m c h                   o.",
"  2 c c c c c c c P   o.o.o.o.o.o.o.o.o.o.o.o.o.o.o.o.o.o.o.o.o.o.o.o.o.o.o.o.o.o.o.o.o.o.  5 F m m m m m F Y   o.o.o.o.o.o.o.o.o.o.o.o.o.o.o.o.  8 F K F F F F F Y   o.o.o.o.o.o.o.  5 m m m m c c m P   o.o.o.o.o.o.o.o.o.o.o.o.o.o.o.o.  2 c c c c c c c P   o.o.o.o.o.o.o.o.o.",
"  2 z c z c c c c P   o.o.o.o.o.o.o.o.o.o.o.o.o.o.o.o.o.o.o.o.o.o.o.o.o.o.o.o.o.o.o.o.o.o.  5 m m m m m F m Q   o.o.o.o.o.o.o.o.o.o.o.o.o.o.o.o.  8 F F F F F F F P   o.o.o.o.o.o.o.  5 m m m m m m F P   o.o.o.o.o.o.o.o.o.o.o.o.o.o.o.o.  2 c c c c z c c P   o.o.o.o.o.o.o.o.o.",
"  2 c c c c c c c P   o.o.o.o.o.o.o.o.o.o.o.o.o.o.o.o.o.o.o.o.o.o.o.o.o.o.o.o.o.o.o.o.o.o.  5 m m F F m F F Y   o.o.o.o.o.o.o.o.o.o.o.o.o.o.o.o.  8 K F F K F F K Y   o.o.o.o.o.o.o.  5 V m m V m m m P   o.o.o.o.o.o.o.o.o.o.o.o.o.o.o.o.  2 c c c c c c m P   o.o.o.o.o.o.o.o.o.",
"  2 c m m m m m m P   o.o.o.o.o.o.o.o.o.o.o.o.o.o.o.o.o.o.o.o.o.o.o.o.o.o.o.o.o.o.o.o.o.o.  8 m F F m F F F Y   o.o.o.o.o.o.o.o.o.o.o.o.o.o.o.o.  r K K F K K K G Q   o.o.o.o.o.o.o.  5 V m V m m m m Y   o.o.o.o.o.o.o.o.o.o.o.o.o.o.o.o.  2 c c m m m m m P   o.o.o.o.o.o.o.o.o.",
"  2 c c c c c m m P   o.o.o.o.o.o.o.o.o.o.o.o.o.o.o.o.o.o.o.o.o.o.o.o.o.o.o.o.o.o.o.o.o.o.  5 m F F F F K K Q   o.o.o.o.o.o.o.o.o.o.o.o.o.o.o.o.  r P K K K K F G Q   o.o.o.o.o.o.o.  5 V m m m F c m P   o.o.o.o.o.o.o.o.o.o.o.o.o.o.o.o.  2 m c c m c c m P   o.o.o.o.o.o.o.o.o.",
"  2 c m c c c c m P   o.o.o.o.o.o.o.o.o.o.o.o.o.o.o.o.o.o.o.o.o.o.o.o.o.o.o.o.o.o.o.o.o.o.  5 F F F F F K K Q   o.o.o.o.o.o.o.o.o.o.o.o.o.o.o.o.  r P P P P K K K Q   o.o.o.o.o.o.o.  5 m m m V m m m P   o.o.o.o.o.o.o.o.o.o.o.o.o.o.o.o.  2 c m c c c c m Y   o.o.o.o.o.o.o.o.o.",
"  2 m m m c c c m P   o.o.o.o.o.o.o.o.o.o.o.o.o.o.o.o.o.o.o.o.o.o.o.o.o.o.o.o.o.o.o.o.o.o.  5 F F m F F G K Q   o.o.o.o.o.o.o.o.o.o.o.o.o.o.o.o.  r P P P P K P K Q   o.o.o.o.o.o.o.  5 m F m m m m c P   o.o.o.o.o.o.o.o.o.o.o.o.o.o.o.o.  2 m m c c z c m P   o.o.o.o.o.o.o.o.o.",
"  5 m m m c c c m P   o.o.o.o.o.o.o.o.o.o.o.o.o.o.o.o.o.o.o.o.o.o.o.o.o.o.o.o.o.o.o.o.o.o.  5 F F V F F F K Q   o.o.o.o.o.o.o.o.o.o.o.o.o.o.o.o.  r P P P P K K K Q   o.o.o.o.o.o.o.  8 F m m m n n m P   o.o.o.o.o.o.o.o.o.o.o.o.o.o.o.o.  5 m m m c c c m Y   o.o.o.o.o.o.o.o.o.",
"  2 c m c m c c m P   o.o.o.o.o.o.o.o.o.o.o.o.o.o.o.o.o.o.o.o.o.o.o.o.o.o.o.o.o.o.o.o.o.o.  8 F G F G F F G Q   o.o.o.o.o.o.o.o.o.o.o.o.o.o.o.o.  r Y Y P P K K K Q   o.o.o.o.o.o.o.  7 m F m V m m m P   o.o.o.o.o.o.o.o.o.o.o.o.o.o.o.o.  2 c m m c c c m P   o.o.o.o.o.o.o.o.o.",
"  2 c c m m c c m P   o.o.o.o.o.o.o.o.o.o.o.o.o.o.o.o.o.o.o.o.o.o.o.o.o.o.o.o.o.o.o.o.o.o.  8 F G F G G G G Q   o.o.o.o.o.o.o.o.o.o.o.o.o.o.o.o.  r Y Y P P K P K Q   o.o.o.o.o.o.o.  7 F m V m m m m P   o.o.o.o.o.o.o.o.o.o.o.o.o.o.o.o.  2 c c m m c m m P   o.o.o.o.o.o.o.o.o.",
"  5 m m m m m c c P   o.o.o.o.o.o.o.o.o.o.o.o.o.o.o.o.o.o.o.o.o.o.o.o.o.o.o.o.o.o.o.o.o.o.  5 m F F G K K K Q   o.o.o.o.o.o.o.o.o.o.o.o.o.o.o.o.  r P P P P P Y P ^   o.o.o.o.o.o.o.  8 F F m c c c m P   o.o.o.o.o.o.o.o.o.o.o.o.o.o.o.o.  5 m m m m c c m P   o.o.o.o.o.o.o.o.o.",
"  2 m c m m m c c P   o.o.o.o.o.o.o.o.o.o.o.o.o.o.o.o.o.o.o.o.o.o.o.o.o.o.o.o.o.o.o.o.o.o.  8 F F F F K K K Q   o.o.o.o.o.o.o.o.o.o.o.o.o.o.o.o.  r Y Y Y P Y P P ^   o.o.o.o.o.o.o.  8 m F m c c m m Y   o.o.o.o.o.o.o.o.o.o.o.o.o.o.o.o.  2 c m m m c c c P   o.o.o.o.o.o.o.o.o.",
"  5 c c c m m m c P   o.o.o.o.o.o.o.o.o.o.o.o.o.o.o.o.o.o.o.o.o.o.o.o.o.o.o.o.o.o.o.o.o.o.  8 K V F F K P P ^   o.o.o.o.o.o.o.o.o.o.o.o.o.o.o.o.  y Y Y Y Y P Y P ^   o.o.o.o.o.o.o.  8 G m F c n m V P   o.o.o.o.o.o.o.o.o.o.o.o.o.o.o.o.  5 c c m m m c c P   o.o.o.o.o.o.o.o.o.",
"  2 c c c m c c c P   o.o.o.o.o.o.o.o.o.o.o.o.o.o.o.o.o.o.o.o.o.o.o.o.o.o.o.o.o.o.o.o.o.o.  5 F F F G K K K ~   o.o.o.o.o.o.o.o.o.o.o.o.o.o.o.o.  y Y Y Q Y Y Y P ^   o.o.o.o.o.o.o.  8 F F m F m F V Y   o.o.o.o.o.o.o.o.o.o.o.o.o.o.o.o.  2 c c m m c c c P   o.o.o.o.o.o.o.o.o.",
"  5 c c c m c m c P   o.o.o.o.o.o.o.o.o.o.o.o.o.o.o.o.o.o.o.o.o.o.o.o.o.o.o.o.o.o.o.o.o.o.  8 F G G G K K P ^   o.o.o.o.o.o.o.o.o.o.o.o.o.o.o.o.  y Y Q Y Y Y Y Y ^   o.o.o.o.o.o.o.  8 F F F m F m m U   o.o.o.o.o.o.o.o.o.o.o.o.o.o.o.o.  2 c c c c m c c P   o.o.o.o.o.o.o.o.o.",
"  5 c c c m m c c P   o.o.o.o.o.o.o.o.o.o.o.o.o.o.o.o.o.o.o.o.o.o.o.o.o.o.o.o.o.o.o.o.o.o.  5 K G K K P K P ^   o.o.o.o.o.o.o.o.o.o.o.o.o.o.o.o.  y Q Q Q Y Y Y P _   o.o.o.o.o.o.o.  8 F V m m m m V U   o.o.o.o.o.o.o.o.o.o.o.o.o.o.o.o.  2 c c c m c c c P   o.o.o.o.o.o.o.o.o.",
"  2 c z c c m m c ^                                     o.o.o.o.o.o.o.o.o.o.o.o.o.o.o.o.o.  @ % @ % % % % % z                                     a - - - - - % % d   o.o.o.o.o.o.o.  8 F m F m m F F P   o.o.o.o.o.o.o.o.o.o.o.o.o.o.o.o.  2 c c m m c c c P   o.o.o.o.o.o.o.o.o.",
"  2 c c m m m c m Q _ ` ` ` ` ` ` ` ` _ ` ` _ _ ` ` ` `   o.o.o.o.o.o.o.o.o.o.o.o.o.o.o.o.o.                  E  . . . . . .....................`                   o.o.o.o.o.o.o.o.  8 K F m F F m V Y   o.o.o.o.o.o.o.o.o.o.o.o.o.o.o.o.  2 c c m m m m m P   o.o.o.o.o.o.o.o.o.",
"  5 c c c m c m c m c c c c c m m m m c c c c c c c c P   o.o.o.o.o.o.o.o.o.o.o.o.o.o.o.o.o.o.o.o.o.o.o.o.o.  r Y E E E Q E Q E Q ^ ^ ^ Q ^ ^ Q `   o.o.o.o.o.o.o.o.o.o.o.o.o.o.o.o.  8 F F F m V F F Y   o.o.o.o.o.o.o.o.o.o.o.o.o.o.o.o.  2 c c c m c c m P   o.o.o.o.o.o.o.o.o.",
"  2 c c c c c c m m m m c c c m m m m c c c c c c z c P   o.o.o.o.o.o.o.o.o.o.o.o.o.o.o.o.o.o.o.o.o.o.o.o.o.  r Y Y E Q E Q E Q Q Q ^ Q Q Q ^ Q `   o.o.o.o.o.o.o.o.o.o.o.o.o.o.o.o.  8 m F F F F F F P   o.o.o.o.o.o.o.o.o.o.o.o.o.o.o.o.  2 c c c c c c c P   o.o.o.o.o.o.o.o.o.",
"  2 c c c c c c c c m m c m m c c m c m m m c c c z c P   o.o.o.o.o.o.o.o.o.o.o.o.o.o.o.o.o.o.o.o.o.o.o.o.o.  r Y Y E Q E Q Q Q Q Q ^ ^ ^ Q Q ^ `   o.o.o.o.o.o.o.o.o.o.o.o.o.o.o.o.  8 F m m F F m V Y   o.o.o.o.o.o.o.o.o.o.o.o.o.o.o.o.  5 c m c c c c m P   o.o.o.o.o.o.o.o.o.",
"  2 m m c c c c m m m m m c c c c c c m m m c c c c c P   o.o.o.o.o.o.o.o.o.o.o.o.o.o.o.o.o.o.o.o.o.o.o.o.o.  r Y Q E Q Q E Q Q Q ^ ^ ^ Q Q Q Q _   o.o.o.o.o.o.o.o.o.o.o.o.o.o.o.o.  8 F F V F m m V Y   o.o.o.o.o.o.o.o.o.o.o.o.o.o.o.o.  5 n c c c c m m P   o.o.o.o.o.o.o.o.o.",
"  5 m c c c c c m m m m m m m c c m c m m c m c c m c P   o.o.o.o.o.o.o.o.o.o.o.o.o.o.o.o.o.o.o.o.o.o.o.o.o.  r Y Y Y E E Q Q Q ^ Q ^ ^ ^ ^ ^ ^ _   o.o.o.o.o.o.o.o.o.o.o.o.o.o.o.o.  8 F F V V F F m Y   o.o.o.o.o.o.o.o.o.o.o.o.o.o.o.o.  2 n c c c n n m P   o.o.o.o.o.o.o.o.o.",
"  5 c c m c c c m m m m m m m m m c c c c c c c m m c P   o.o.o.o.o.o.o.o.o.o.o.o.o.o.o.o.o.o.o.o.o.o.o.o.o.  r Y Y Y E E Q ~ Q ^ Q Q ^ ^ Q ^ Q _   o.o.o.o.o.o.o.o.o.o.o.o.o.o.o.o.  8 F m m F m F m Y   o.o.o.o.o.o.o.o.o.o.o.o.o.o.o.o.  5 c c n c c c n U   o.o.o.o.o.o.o.o.o.",
"  2 c m c c c z m c m c c m c c c c m c m m m c c m m P   o.o.o.o.o.o.o.o.o.o.o.o.o.o.o.o.o.o.o.o.o.o.o.o.o.  r Y Y Y Q E E Q ~ Q ^ ^ ^ ^ Q Q ^ _   o.o.o.o.o.o.o.o.o.o.o.o.o.o.o.o.  7 F F F F m V m Y   o.o.o.o.o.o.o.o.o.o.o.o.o.o.o.o.  2 c n c c c c m P   o.o.o.o.o.o.o.o.o.",
"  2 c m c c c c c g y @ @ @ O @ @ O @ @ O @ O @ @ @ @ p   o.o.o.o.o.o.o.o.o.o.o.o.o.o.o.o.o.                  p - - - - - - - - - - : - - - - - z                   o.o.o.o.o.o.o.o.  8 F F F m m m m Y   o.o.o.o.o.o.o.o.o.o.o.o.o.o.o.o.  2 n m c c x c n P   o.o.o.o.o.o.o.o.o.",
"  2 c m m c c c c h                                     o.o.o.o.o.o.o.o.o.o.o.o.o.o.o.o.o.  P { { ` { { { { _                                     Q ........{ ......  o.o.o.o.o.o.o.  8 m F m F F F V Y   o.o.o.o.o.o.o.o.o.o.o.o.o.o.o.o.  3 n c c c c n m P   o.o.o.o.o.o.o.o.o.",
"  5 c m c c c m m P   o.o.o.o.o.o.o.o.o.o.o.o.o.o.o.o.o.o.o.o.o.o.o.o.o.o.o.o.o.o.o.o.o.o.  8 K K K K P U P ^   o.o.o.o.o.o.o.o.o.o.o.o.o.o.o.o.  y Q Q Q Y Q Y Y ^   o.o.o.o.o.o.o.  8 V V F F m F F Y   o.o.o.o.o.o.o.o.o.o.o.o.o.o.o.o.  5 n m c c m n n P   o.o.o.o.o.o.o.o.o.",
"  2 m c m m m m m Y   o.o.o.o.o.o.o.o.o.o.o.o.o.o.o.o.o.o.o.o.o.o.o.o.o.o.o.o.o.o.o.o.o.o.  5 F G G K K P P ^   o.o.o.o.o.o.o.o.o.o.o.o.o.o.o.o.  y Q Y Q Y Y Y U ^   o.o.o.o.o.o.o.  8 F F m m V m m Y   o.o.o.o.o.o.o.o.o.o.o.o.o.o.o.o.  2 n n m m m m m U   o.o.o.o.o.o.o.o.o.",
"  2 m m m m m m m P   o.o.o.o.o.o.o.o.o.o.o.o.o.o.o.o.o.o.o.o.o.o.o.o.o.o.o.o.o.o.o.o.o.o.  5 K F F K K K K ^   o.o.o.o.o.o.o.o.o.o.o.o.o.o.o.o.  y Y Y Q Y Y Y P ^   o.o.o.o.o.o.o.  8 K F F V V V m Y   o.o.o.o.o.o.o.o.o.o.o.o.o.o.o.o.  5 m m n m m m m Y   o.o.o.o.o.o.o.o.o.",
"  5 m m c m m m m P   o.o.o.o.o.o.o.o.o.o.o.o.o.o.o.o.o.o.o.o.o.o.o.o.o.o.o.o.o.o.o.o.o.o.  8 m F G K G G F Q   o.o.o.o.o.o.o.o.o.o.o.o.o.o.o.o.  y Q Q Q Y Y Y Y ^   o.o.o.o.o.o.o.  8 F m m F V m m Y   o.o.o.o.o.o.o.o.o.o.o.o.o.o.o.o.  3 m m n n m m m P   o.o.o.o.o.o.o.o.o.",
"  2 c m m m m m m P   o.o.o.o.o.o.o.o.o.o.o.o.o.o.o.o.o.o.o.o.o.o.o.o.o.o.o.o.o.o.o.o.o.o.  8 F F G F K K K Y   o.o.o.o.o.o.o.o.o.o.o.o.o.o.o.o.  r Y Y Y Y Y Y P ^   o.o.o.o.o.o.o.  8 F F m V F m m Y   o.o.o.o.o.o.o.o.o.o.o.o.o.o.o.o.  2 c n n n m m m P   o.o.o.o.o.o.o.o.o.",
"  2 c c c c c m m Y   o.o.o.o.o.o.o.o.o.o.o.o.o.o.o.o.o.o.o.o.o.o.o.o.o.o.o.o.o.o.o.o.o.o.  5 F m F F F G K Q   o.o.o.o.o.o.o.o.o.o.o.o.o.o.o.o.  r Y Y P Y Y Y P ^   o.o.o.o.o.o.o.  8 F m F m m F m Y   o.o.o.o.o.o.o.o.o.o.o.o.o.o.o.o.  < x c m n m m m U   o.o.o.o.o.o.o.o.o.",
"  2 c c m m c m m P   o.o.o.o.o.o.o.o.o.o.o.o.o.o.o.o.o.o.o.o.o.o.o.o.o.o.o.o.o.o.o.o.o.o.  8 F F F F F K K ^   o.o.o.o.o.o.o.o.o.o.o.o.o.o.o.o.  r P Y P P P K P ^   o.o.o.o.o.o.o.  7 F m m F m V m Y   o.o.o.o.o.o.o.o.o.o.o.o.o.o.o.o.  2 c c n n m m m P   o.o.o.o.o.o.o.o.o.",
"  2 c c c c m m c P   o.o.o.o.o.o.o.o.o.o.o.o.o.o.o.o.o.o.o.o.o.o.o.o.o.o.o.o.o.o.o.o.o.o.  8 F V F G K K K Q   o.o.o.o.o.o.o.o.o.o.o.o.o.o.o.o.  r P P P P K K K Q   o.o.o.o.o.o.o.  8 F F F V F m m U   o.o.o.o.o.o.o.o.o.o.o.o.o.o.o.o.  2 c c n n n c c P   o.o.o.o.o.o.o.o.o.",
"  5 c c m m c c c P   o.o.o.o.o.o.o.o.o.o.o.o.o.o.o.o.o.o.o.o.o.o.o.o.o.o.o.o.o.o.o.o.o.o.  5 F F F F K F K Q   o.o.o.o.o.o.o.o.o.o.o.o.o.o.o.o.  r P P P P K K K Q   o.o.o.o.o.o.o.  5 m F F V m m m Y   o.o.o.o.o.o.o.o.o.o.o.o.o.o.o.o.  3 n n n c c x c P   o.o.o.o.o.o.o.o.o.",
"  5 m m m c c z z K   o.o.o.o.o.o.o.o.o.o.o.o.o.o.o.o.o.o.o.o.o.o.o.o.o.o.o.o.o.o.o.o.o.o.  5 m V F F F K F Q   o.o.o.o.o.o.o.o.o.o.o.o.o.o.o.o.  r P P P P G K K Q   o.o.o.o.o.o.o.  5 V m m m m F m Y   o.o.o.o.o.o.o.o.o.o.o.o.o.o.o.o.  5 m m n c x z x K   o.o.o.o.o.o.o.o.o.",
"  5 m m m m c c c K   o.o.o.o.o.o.o.o.o.o.o.o.o.o.o.o.o.o.o.o.o.o.o.o.o.o.o.o.o.o.o.o.o.o.  5 m F F F F F F Y   o.o.o.o.o.o.o.o.o.o.o.o.o.o.o.o.  r P P K P K K K Q   o.o.o.o.o.o.o.  5 m F m F m m m P   o.o.o.o.o.o.o.o.o.o.o.o.o.o.o.o.  5 m m m c c c c K   o.o.o.o.o.o.o.o.o.",
"  2 m m m m c c c P   o.o.o.o.o.o.o.o.o.o.o.o.o.o.o.o.o.o.o.o.o.o.o.o.o.o.o.o.o.o.o.o.o.o.  5 m m F F F K F Q   o.o.o.o.o.o.o.o.o.o.o.o.o.o.o.o.  r K K K K K F K Q   o.o.o.o.o.o.o.  5 m m m m F m m P   o.o.o.o.o.o.o.o.o.o.o.o.o.o.o.o.  2 m m m c c z c P   o.o.o.o.o.o.o.o.o.",
"  5 c c c c z c m P   o.o.o.o.o.o.o.o.o.o.o.o.o.o.o.o.o.o.o.o.o.o.o.o.o.o.o.o.o.o.o.o.o.o.  5 F F F F F F K Q   o.o.o.o.o.o.o.o.o.o.o.o.o.o.o.o.  8 K K K K K K F Y   o.o.o.o.o.o.o.  5 F m m F m m m P   o.o.o.o.o.o.o.o.o.o.o.o.o.o.o.o.  5 c c m c z c m P   o.o.o.o.o.o.o.o.o.",
"  2 c c c c c c c P   o.o.o.o.o.o.o.o.o.o.o.o.o.o.o.o.o.o.o.o.o.o.o.o.o.o.o.o.o.o.o.o.o.o.  5 m m F F F F F Q   o.o.o.o.o.o.o.o.o.o.o.o.o.o.o.o.  8 K F F K K F K Q   o.o.o.o.o.o.o.  5 m F m m m m m P   o.o.o.o.o.o.o.o.o.o.o.o.o.o.o.o.  5 c c c c c c c P   o.o.o.o.o.o.o.o.o.",
"  2 c c c m c c m P   o.o.o.o.o.o.o.o.o.o.o.o.o.o.o.o.o.o.o.o.o.o.o.o.o.o.o.o.o.o.o.o.o.o.  5 m m F m F F K Y   o.o.o.o.o.o.o.o.o.o.o.o.o.o.o.o.  8 K F K K F F F Y   o.o.o.o.o.o.o.  5 m m m m c m c P   o.o.o.o.o.o.o.o.o.o.o.o.o.o.o.o.  2 c c m m c c c P   o.o.o.o.o.o.o.o.o.",
"  5 m m m m m m m P   o.o.o.o.o.o.o.o.o.o.o.o.o.o.o.o.o.o.o.o.o.o.o.o.o.o.o.o.o.o.o.o.o.o.  5 m m m F F m m Y   o.o.o.o.o.o.o.o.o.o.o.o.o.o.o.o.  8 K K F F F F F Q   o.o.o.o.o.o.o.  5 m m m m m m c P   o.o.o.o.o.o.o.o.o.o.o.o.o.o.o.o.  5 c m m c m m m P   o.o.o.o.o.o.o.o.o.",
"  5 m m m m m m c ^                                                       o.o.o.o.o.o.o.o.  5 F F m F c c c Y   o.o.o.o.o.o.o.o.o.o.o.o.o.o.o.o.  8 K F F F F F F Y   o.o.o.o.o.o.o.  5 F m m m c m m P   o.o.o.o.o.o.o.o.o.o.o.o.o.o.o.o.  5 m m c m m m m P   o.o.o.o.o.o.o.o.o.",
"  2 c c c m m c c Q _ _ _ ` ` ` ` ` ` _ _ ` ` _ ` ` ` ` ` _ _ _ _ _ _ ` {   o.o.o.o.o.o.o.  5 m m F m m m F Y   o.o.o.o.o.o.o.o.o.o.o.o.o.o.o.o.  8 m F F F m F F Y   o.o.o.o.o.o.o.  5 m m m m c c c P   o.o.o.o.o.o.o.o.o.o.o.o.o.o.o.o.  2 c c m m c m m P   o.o.o.o.o.o.o.o.o.",
"  2 c c c c m c c m c m c m m m m m m c c m m m m m m m m c c z z c c c P   o.o.o.o.o.o.o.  5 m F m m m F m Y   o.o.o.o.o.o.o.o.o.o.o.o.o.o.o.o.  8 m F m m F m m Y   o.o.o.o.o.o.o.  5 m c c c c c c P   o.o.o.o.o.o.o.o.o.o.o.o.o.o.o.o.  2 c c m c c c m P   o.o.o.o.o.o.o.o.o.",
"  2 c c c c c c c m m c c m c m c c c c c m m m m c c m c c c c c c c c P   o.o.o.o.o.o.o.  5 m m m c F m V Y   o.o.o.o.o.o.o.o.o.o.o.o.o.o.o.o.  5 F m F F F F F Y   o.o.o.o.o.o.o.  2 m c c c c c c P   o.o.o.o.o.o.o.o.o.o.o.o.o.o.o.o.  2 c m c c z c m P   o.o.o.o.o.o.o.o.o.",
"  2 c m c c c c m c m c c m c m c m c m m m m m m c m m m c c c m c c m P   o.o.o.o.o.o.o.  5 m m m m m m m U   o.o.o.o.o.o.o.o.o.o.o.o.o.o.o.o.  8 m m F m m F m Y   o.o.o.o.o.o.o.  2 c c c c c c c P   o.o.o.o.o.o.o.o.o.o.o.o.o.o.o.o.  2 c c c c z c m P   o.o.o.o.o.o.o.o.o.",
"  2 c c z c c c c m c m m c c c c c c m m m m m c c m c c c c c m m c c P   o.o.o.o.o.o.o.  2 c m m m m m m P   o.o.o.o.o.o.o.o.o.o.o.o.o.o.o.o.  5 F m m F m m F Y   o.o.o.o.o.o.o.  5 c c c c c c c P   o.o.o.o.o.o.o.o.o.o.o.o.o.o.o.o.  5 c c c c c c c P   o.o.o.o.o.o.o.o.o.",
"  2 c c c c c c m m c m c m c c c m m c m m c c c c c m c c c c c c c c P   o.o.o.o.o.o.o.  5 c m m m m m m P   o.o.o.o.o.o.o.o.o.o.o.o.o.o.o.o.  5 F m c m m F m Y   o.o.o.o.o.o.o.  2 c c c c m c c P   o.o.o.o.o.o.o.o.o.o.o.o.o.o.o.o.  2 c c z c c m m P   o.o.o.o.o.o.o.o.o.",
"  5 m m c c c m c m m m m m m m m m m c c m m c m m m c z c z c c c c c P   o.o.o.o.o.o.o.  5 m m F m m m m P   o.o.o.o.o.o.o.o.o.o.o.o.o.o.o.o.  5 m m c m m c m Y   o.o.o.o.o.o.o.  5 m m m c c c c P   o.o.o.o.o.o.o.o.o.o.o.o.o.o.o.o.  5 c c c c m m c P   o.o.o.o.o.o.o.o.o.",
"  2 c c c c c c m c m m c m m m m m c c c c m c m c m c c z z z z c z c P   o.o.o.o.o.o.o.  2 c c m m c m n P   o.o.o.o.o.o.o.o.o.o.o.o.o.o.o.o.  5 m m m c m c c P   o.o.o.o.o.o.o.  2 c m m c c c c P   o.o.o.o.o.o.o.o.o.o.o.o.o.o.o.o.  5 c m c c c m m P   o.o.o.o.o.o.o.o.o.",
"  O @ @ @ @ @ @ @ @ @ @ @ @ @ @ @ @ @ @ @ @ @ @ @ @ @ @ @ O O O O O O O p   o.o.o.o.o.o.o.  O O @ @ @ O @ @ a   o.o.o.o.o.o.o.o.o.o.o.o.o.o.o.o.  @ @ % @ @ @ @ @ p   o.o.o.o.o.o.o.  O @ @ @ @ @ @ @ a   o.o.o.o.o.o.o.o.o.o.o.o.o.o.o.o.  O O @ @ O @ @ @ a   o.o.o.o.o.o.o.o.o.",
"o.                                                                        o.o.o.o.o.o.o.o.o.                  o.o.o.o.o.o.o.o.o.o.o.o.o.o.o.o.o.o.                  o.o.o.o.o.o.o.o.o.                  o.o.o.o.o.o.o.o.o.o.o.o.o.o.o.o.o.o.                  o.o.o.o.o.o.o.o.o.o."
};
