/* XPM */
static char *level[] = {
/* columns rows colors chars-per-pixel */
"490 34 40 1 ",
"  c black",
". c #050907",
"X c #060A08",
"o c #0B120F",
"O c #0B1210",
"+ c #253D35",
"@ c #274037",
"# c #274138",
"$ c #29443B",
"% c #2B483E",
"& c #2C4940",
"* c #3D6456",
"= c #3E6658",
"- c #3F685A",
"; c #416C5D",
": c #436F60",
"> c #457363",
", c #487767",
"< c #487768",
"1 c #4A7B6A",
"2 c #4E806F",
"3 c #4F8271",
"4 c #518574",
"5 c #538976",
"6 c #558C7A",
"7 c #57917D",
"8 c #59927E",
"9 c #5B9682",
"0 c #5E9B86",
"q c #5F9D88",
"w c #609E89",
"e c #63A38D",
"r c #65A791",
"t c #66A993",
"y c #68AD96",
"u c #6AAF98",
"i c #6CB49B",
"p c #6FB89F",
"a c #6FB8A0",
"s c None",
/* pixels */
"ssssssssssssssssssssssssssssssssssssssssssssssssssssssssssssssssssssssssssssssssssssssssssssssssssssssssssssssssssssssssssssssssssssssssssssssssssssssssssssssssssssssssssssssssssssssssssssssssssssssssssssssssssssssssssssssssssssssssssssssssssssssssssssssssssssssssssssssssssssssssssssssssssssssssssssssssssssssssssssssssssssssssssssssssssssssssssssssssssssssssssssssssssssssssssssssssssssssssssssssssssssssssssssssssssssssssssssssssssssssssssssssssssssssssssssssssssssssssssssssssssssssssss",
"sssss+:;;:Xssssssssssssssssssssssssssssssssssssssssssssssssss+;;;::;:;$sssssssssssssssssssssssssssssssssssssssssssssssss+;;;:-::;$ssssssssssssssssssssssssssssssssssssssssssssssssssssssssss$,>>>Xssssssssssssssssssssssssssssssssssssssss->>>>->>>>:>>:::>;Xssssssssssssssssssssssssssssssssssssssssssss#>>>>>>::%sssssssssssssssssssssssssssssssssssssssssssss*----;--::::-->-->Xssssssssssssssssssssssssssssssssssssssssssss#>>>>>>>>%sssssssssssssssssssssssssssssssssssssssssssssssss#>>>>>>,,%ssssss",
"sssss:yyyyOssssssssssssssssssssssssssssssssssssssssssssssssss:ttytyyyy,sssssssssssssssssssssssssssssssssssssssssssssssss-ttttyyyy<ssssssssssssssssssssssssssssssssssssssssssssssssssssssssss>iiipOssssssssssssssssssssssssssssssssssssssssryyyiiyiiyuuiuuyyyOssssssssssssssssssssssssssssssssssssssssssss>iiipiiii1sssssssssssssssssssssssssssssssssssssssssssssqeeerrrtttttttttytossssssssssssssssssssssssssssssssssssssssssss>piiiiiip1sssssssssssssssssssssssssssssssssssssssssssssssss>iipiiipp<ssssss",
"sssss;yyyyOssssssssssssssssssssssssssssssssssssssssssssssssss;tyryyyyt,sssssssssssssssssssssssssssssssssssssssssssssssss;tttytyty<ssssssssssssssssssssssssssssssssssssssssssssssssssssssssss,ppiiOssssssssssssssssssssssssssssssssssssssssrtryyyyuuuuuuyyyyrOssssssssssssssssssssssssssssssssssssssssssss,ipiiiiii1sssssssssssssssssssssssssssssssssssssssssssssqeeerrrrrttttttrttossssssssssssssssssssssssssssssssssssssssssss>iiiiiiii1sssssssssssssssssssssssssssssssssssssssssssssssss>iiiipppp1ssssss",
"sssss:yyyrOssssssssssssssssssssssssssssssssssssssssssssssssss;tyyryrty<sssssssssssssssssssssssssssssssssssssssssssssssss;tyrtyyyy,ssssssssssssssssssssssssssssssssssssssssssssssssssssssssss,iiiiOssssssssssssssssssssssssssssssssssssssssetyyyyyuyiyyyuyyyyOssssssssssssssssssssssssssssssssssssssssssss,iiiiiiiu<sssssssssssssssssssssssssssssssssssssssssssss0weeerrrrrtrtrrrrrOssssssssssssssssssssssssssssssssssssssssssss>iiiipiii1sssssssssssssssssssssssssssssssssssssssssssssssss>iiiiiiip1ssssss",
"ss   ;tyyyOsssssssssssssssssssssssssssssssssssssssssssssss   ;tttytytt,    ssssssssssssssssssssssssssssssssssssssssss   -rrrrttyy<    sssssssssssssssssssssssssssssssssssssssssssssssssss   >ppiiOsssssssssssssssssssssssssssssssssssssssserrrytyyyyyyyyyytrOsssssssssssssssssssssssssssssssssssssssss   >ippiiiii<    sssssssssssssssssssssssssssssssssssssssss0eeeeeeerrrrrrrrrrosssssssssssssssssssssssssssssssssssssssss   >iiipiiui1    ssssssssssssssssssssssssssssssssssssssssss   >yiiipiip1    ss",
"seerryyyryOsssssssssssssssssssssssssssssssssssssssssssssserrr,        ;rrrrossssssssssssssssssssssssssssssssssssssssweee,        ;yrtrOsssssssssssssssssssssssssssssssssssssssssssssssssupppppiiiOsssssssssssssssssssssssssssssssssssssssswrrr,             sssssssssssssssssssssssssssssssssssssssssyiip<        >yuyrOsssssssssssssssssssssssssssssssssssssssss            -reeeossssssssssssssssssssssssssssssssssssssssruyi8        6uyyyOsssssssssssssssssssssssssssssssssssssssseyyy8        6iiuyOs",
"seerrtrrrrOsssssssssssssssssssssssssssssssssssssssssssssserrr,ssssssss;rrrrossssssssssssssssssssssssssssssssssssssssqeee>ssssssss;ttrrOsssssssssssssssssssssssssssssssssssssssssssssssssuiiiiiiiuOsssssssssssssssssssssssssssssssssssssssswerr>ssssssssssssssssssssssssssssssssssssssssssssssssssssssryii1ssssssss>uytyOsssssssssssssssssssssssssssssssssssssssssssssssssssss-eeewosssssssssssssssssssssssssssssssssssssssseyuy8ssssssss5iyyyOsssssssssssssssssssssssssssssssssssssssseryy6ssssssss6iyiyOs",
"swerrrrrrtOsssssssssssssssssssssssssssssssssssssssssssssswrrr>ssssssss;rrreossssssssssssssssssssssssssssssssssssssss0eee>ssssssss;rrrrOsssssssssssssssssssssssssssssssssssssssssssssssssuiiiiiuuuOssssssssssssssssssssssssssssssssssssssssweee>ssssssssssssssssssssssssssssssssssssssssssssssssssssssryui<ssssssss:yyrrOsssssssssssssssssssssssssssssssssssssssssssssssssssss=wwqqosssssssssssssssssssssssssssssssssssssssseryy8ssssssss5uyytOsssssssssssssssssssssssssssssssssssssssseryy6ssssssss5yuyyOs",
"swrerrrrrrOsssssssssssssssssssssssssssssssssssssssssssssseerr,ssssssss;reeeossssssssssssssssssssssssssssssssssssssss0eee>ssssssss;rrreOsssssssssssssssssssssssssssssssssssssssssssssssssuiiiiuuuuOssssssssssssssssssssssssssssssssssssssss0wwe>ssssssssssssssssssssssssssssssssssssssssssssssssssssssryui<ssssssss:yytrOsssssssssssssssssssssssssssssssssssssssssssssssssssss=wwqqosssssssssssssssssssssssssssssssssssssssseyyy6ssssssss5yyttOsssssssssssssssssssssssssssssssssssssssswerr6ssssssss5yyytOs",
"s;>:>6errrOssssssssssssssssssssssssssssssssssssssssssssss;,>>&ssssssss;ereeossssssssssssssssssssssssssssssssssssssss;:>>%ssssssss;rrrrossssssssssssssssssssssssssssssssssssssssssss+;>>:4111wyuuyossssssssssssssssssssssssssssssssssssssss9wwe6*;*;*;;*#sssssssssssssssssssssssssssssssssssssssssssssryyy1ssssssss%,,,>Xsssssssssssssssssssssssssssssssssssssssssssssssssssss=w0q0osssssssssssssssssssssssssssssssssssssssseryy6ssssssss5ytrrOsssssssssssssssssssssssssssssssssssssssseerr6ssssssss5yyyyOs",
"sssss;eeeeosssssssssssssssssssssssssssssssssssssssssssssssssssssssssss*eeeeosssssssssssssssssssssssssssssssssssssssssssssssssssss-ereeossssssssssssssssssssssssssssssssssssssssssss:utuu$sss;utttossssssssssssssssssssssssssssssssssssssss9wq0wwwwwwewe:sssssssssssssssssssssssssssssssssssssssssssssettr<sssssssssssssssssssssssssssssssssssssssssssssssssssssssssssssssssss*0000osssssssssssssssssssssssssssssssssssssssserrr6ssssssss4trrrOssssssssssssssssssssssssssssssssssssssssqeee5ssssssss5rrrrOs",
"sssss;weeeosssssssssssssssssssssssssssssssssssssssssssssssssssssssssss*eeeqosssssssssssssssssssssssssssssssssssssssssssssssssssss-eeeeOssssssssssssssssssssssssssssssssssssssssssss;tyty#sss;trtrossssssssssssssssssssssssssssssssssssssss9000000wwwwww>ssssssssssssssssssssssssssssssssssssssssssssserrr,sssssssssssssssssssssssssssssssssssssssssssssssssssssssssssssssssss=0wwwosssssssssssssssssssssssssssssssssssssssseerr6ssssssss1rreeOssssssssssssssssssssssssssssssssssssssss0wee5ssssssss3rrrrOs",
"sssss=weweosssssssssssssssssssssssssssssssssssssssssssssssssssssssssss*ee0wosssssssssssssssssssssssssssssssssssssssssssssssssssss-eeewOssssssssssssssssssssssssssssssssssssssssssss;rrtt@sss;rrrrossssssssssssssssssssssssssssssssssssssss0qq000w000w00;ssssssssssssssssssssssssssssssssssssssssssssswrrr,sssssssssssssssssssssssssssssssssssssssssssssssssssssssssssssssssss;ewwwossssssssssssssssssssssssssssssssssssssssqeee5ssssssss4reeeOssssssssssssssssssssssssssssssssssssssss0eee4ssssssss3eeeeos",
"sssss*wwwwossssssssssssssssssssssssssssssssssssssssssssssssssssssss   *e0e0ossssssssssssssssssssssssssssssssssssssssssssssssss   *ewwwOsssssssssssssssssssssssssssssssssssssssss   ;errr+sss;eeeeossssssssssssssssssssssssssssssssssssssss0wweqewwwww00;    sssssssssssssssssssssssssssssssssssssssssweee>        ssssssssssssssssssssssssssssssssssssssssssssssssssssssss   ;eeeeossssssssssssssssssssssssssssssssssssssss0eee4        1eeeeossssssssssssssssssssssssssssssssssssssss0qww3        1eeweos",
"sssss*00w0ossssssssssssssssssssssssssssssssssssssssssssssssssssssswwee:    ssssssssssssssssssssssssssssssssssssssssssssssssss0wwe;    sssssssssssssssssssssssssssssssssssssssss0eee4    ssss;wwwwosssssssssssssssssssssssssssssssssssssssss            =0000ossssssssssssssssssssssssssssssssssssssss0ewweeeeeeeee>ssssssssssssssssssssssssssssssssssssssssssssssssssssssweee>    ssssssssssssssssssssssssssssssssssssssssss   *ewewewew:    ssssssssssssssssssssssssssssssssssssssssss   *qwwwwwwwewwweos",
"sssss*wwwwosssssssssssssssssssssssssssssssssssssssssssssssssssssss0qeq:ssssssssssssssssssssssssssssssssssssssssssssssssssssss00qw;sssssssssssssssssssssssssssssssssssssssssssss0www4ssssssss*wwwwosssssssssssssssssssssssssssssssssssssssssssssssssssss=w0wwossssssssssssssssssssssssssssssssssssssss00wwwwwwwweww;sssssssssssssssssssssssssssssssssssssssssssssssssssssswerr>sssssssssssssssssssssssssssssssssssssssssssssssss=00wwwwww;sssssssssssssssssssssssssssssssssssssssssssssssss;w00w0w0ww9ww9os",
"sssss;wwwwosssssssssssssssssssssssssssssssssssssssssssssssssssssss0eeq;ssssssssssssssssssssssssssssssssssssssssssssssssssssss9000;sssssssssssssssssssssssssssssssssssssssssssss9www4ssssssss*wwwwosssssssssssssssssssssssssssssssssssssssssssssssssssss;wwwwossssssssssssssssssssssssssssssssssssssss900ww9wwwwwww;sssssssssssssssssssssssssssssssssssssssssssssssssssssserrr,sssssssssssssssssssssssssssssssssssssssssssssssss=ww0w0w0w;sssssssssssssssssssssssssssssssssssssssssssssssss*wwwwwwwwwwwwwos",
"sssss;wweeOsssssssssssssssssssssssssssssssssssssssssssssssssssssss9e00;ssssssssssssssssssssssssssssssssssssssssssssssssssssss0qew;ssssssssssssssssssssssssssssssssssssssssssssswwww1ssssssss;wwwwosssssssssssssssssssssssssssssssssssssssssssssssssssss*ewwwossssssssssssssssssssssssssssssssssssssss9qqwwwwwwwwww;ssssssssssssssssssssssssssssssssssssssssssssssssssssssertt>sssssssssssssssssssssssssssssssssssssssssssssssss*wwwwwwew:sssssssssssssssssssssssssssssssssssssssssssssssss;wweeeewewwwwwOs",
"sssss;eeeeOssssssssssssssssssssssssssssssssssssssssssssssssss+***=;:;;$ssssssssssssssssssssssssssssssssssssssssssssssssssssss;:;:;*===Xsssssssssssssssssssssssssssssssssssssssswwww7;;;;;;;;5weewosssssssssssssssssssssssssssssssssssssssssssssssssssss;eeewossssssssssssssssssssssssssssssssssssssss0wew9;:;;;;;;>;**;Xssssssssssssssssssssssssssssssssssssssssssssssssseett,sssssssssssssssssssssssssssssssssssssssssssss***-,;;>;>:;>,*;**Xssssssssssssssssssssssssssssssssssssssssssss@:>:>>>>>6eewwos",
"sssss;eeeeOssssssssssssssssssssssssssssssssssssssssssssssssss=0000ossssssssssssssssssssssssssssssssssssssssssssssssssssssssssssss=weewosssssssssssssssssssssssssssssssssssssssswweeerrrretrrrrreeOsssssssssssssssssssssssssssssssssssssssssssssssssssss;reeeossssssssssssssssssssssssssssssssssssssss0eee5ssssssss1eww0osssssssssssssssssssssssssssssssssssssssssssssssssettt,sssssssssssssssssssssssssssssssssssssssssssssweee4ssssssss3eeeeOsssssssssssssssssssssssssssssssssssssssssssssssssssss;rreeos",
"sssss;rrrrOssssssssssssssssssssssssssssssssssssssssssssssssss*000qossssssssssssssssssssssssssssssssssssssssssssssssssssssssssssss;eeeeosssssssssssssssssssssssssssssssssssssssswwerrttrytttttrrtrOsssssssssssssssssssssssssssssssssssssssssssssssssssss;rreeosssssssssssssssssssssssssssssssssssssssseree5ssssssss3eeweosssssssssssssssssssssssssssssssssssssssssssssssssettt,ssssssssssssssssssssssssssssssssssssssssssssswree6ssssssss4ereeOsssssssssssssssssssssssssssssssssssssssssssssssssssss;rrrrOs",
"sssss;rrtrOssssssssssssssssssssssssssssssssssssssssssssssssss=wwwwOssssssssssssssssssssssssssssssssssssssssssssssssssssssssssssss;eeeeOsssssssssssssssssssssssssssssssssssssssswrttttttuyyuyyytytOsssssssssssssssssssssssssssssssssssssssssssssssssssss;rrreOsssssssssssssssssssssssssssssssssssssssserrr6ssssssss2eeeeossssssssssssssssssssssssssssssssssssssssssssssssseytt,ssssssssssssssssssssssssssssssssssssssssssssserrr6ssssssss4rrreOsssssssssssssssssssssssssssssssssssssssssssssssssssss:tttrOs",
"sssss;ttrrOsssssssssssssssssssssssssssssssssssssssssssssss   =wweeOssssssssssssssssssssssssssssssssssssssssssssssssss   sssssssss;rereOsssssssssssssssssssssssssssssssssssssssserttttuuuuuuuiyyyyOsssssssssssssssssssssssssssssssssssssssss   sssssssss;trrrOssssssssssssssssssssssssssssssssssssssssetry6ssssssss4reeeosssssssssssssssssssssssssssssssssssssssssssss    etuu,ssssssssssssssssssssssssssssssssssssssssssssserrr6ssssssss4ttrrOsssssssssssssssssssssssssssssssssssssssss   sssssssss;yyttOs",
"sssss;ttttossssssssssssssssssssssssssssssssssssssssssssss0www-    ssssssssssssssssssssssssssssssssssssssssssssssssss0eee>ssssssss;rreeOsssssssssssssssssssssssssssssssssssssssss            >iyyuosssssssssssssssssssssssssssssssssssssssseyyy<ssssssss;ytrrOsssssssssssssssssssssssssssssssssssssssseyyt6ssssssss4rrrrossssssssssssssssssssssssssssssssssssssssssss;rtttO   sssssssssssssssssssssssssssssssssssssssssssssseryy6ssssssss4yrrrOsssssssssssssssssssssssssssssssssssssssserty,ssssssss>uyytos",
"sssss;yyttOssssssssssssssssssssssssssssssssssssssssssssss0wwe>ssssssssssssssssssssssssssssssssssssssssssssssssssssss0eee>ssssssss;rttrOsssssssssssssssssssssssssssssssssssssssssssssssssssss:iiyuossssssssssssssssssssssssssssssssssssssssryty<ssssssss:yyrrOssssssssssssssssssssssssssssssssssssssssryiy8ssssssss4trrrossssssssssssssssssssssssssssssssssssssssssss;rttyOssssssssssssssssssssssssssssssssssssssssssssssssseyyy6ssssssss5yuytOsssssssssssssssssssssssssssssssssssssssseyty,ssssssss>iuuyos",
"sssss;yyytOssssssssssssssssssssssssssssssssssssssssssssss0eee>ssssssssssssssssssssssssssssssssssssssssssssssssssssss0eer>ssssssss;rrttOsssssssssssssssssssssssssssssssssssssssssssssssssssss>iiiiOsssssssssssssssssssssssssssssssssssssssseyyy<ssssssss:yyryOssssssssssssssssssssssssssssssssssssssssryii8ssssssss5rtrrOssssssssssssssssssssssssssssssssssssssssssss;rrtrOsssssssssssssssssssssssssssssssssssssssssssssssssryyy8ssssssss5yuyyOsssssssssssssssssssssssssssssssssssssssseyyy<ssssssss>uuuuOs",
"sssss;yyyyOssssssssssssssssssssssssssssssssssssssssssssssqwee,ssssssssssssssssssssssssssssssssssssssssssssssssssssssqeee>ssssssss;yrtrOsssssssssssssssssssssssssssssssssssssssssssssssssssss>piiiOssssssssssssssssssssssssssssssssssssssssetyy<ssssssss>yyyrOssssssssssssssssssssssssssssssssssssssssriii9ssssssss5yyyrOssssssssssssssssssssssssssssssssssssssssssss;ettyOsssssssssssssssssssssssssssssssssssssssssssssssssryyi8ssssssss6uyiyOssssssssssssssssssssssssssssssssssssssssetyi<ssssssss>iiuiOs",
"sssss;yyttOssssssssssssssssssssssssssssssssssssssssssssssqere7-;--------;--Xssssssssssssssssssssssssssssssssssssssss;>>>:;;;;;;-;>,,,,Xsssssssssssssssssssssssssssssssssssssssssssssssssssss>ppiiOssssssssssssssssssssssssssssssssssssssss>,,<>>>>;>:::,<<<<Xssssssssssssssssssssssssssssssssssssssss,11<4>>>>>>>>4<<<,Xssssssssssssssssssssssssssssssssssssssssssss;rtttOsssssssssssssssssssssssssssssssssssssssssssssssss,<1<4:>>>>>>;511<<Xssssssssssssssssssssssssssssssssssssssss>,<<,::>>>>>>11111Xs",
"sssss:yyyyOssssssssssssssssssssssssssssssssssssssssssssssqrrrrrrttytytttrrrOssssssssssssssssssssssssssssssssssssssssssss;rrryrytt,ssssssssssssssssssssssssssssssssssssssssssssssssssssssssss,ppiiOssssssssssssssssssssssssssssssssssssssssssss>uyyyyyiy<sssssssssssssssssssssssssssssssssssssssssssssssss>iiiiiiii<sssssssssssssssssssssssssssssssssssssssssssssssss;rtttOsssssssssssssssssssssssssssssssssssssssssssssssssssss>iiipippi1sssssssssssssssssssssssssssssssssssssssssssssssss>iiiipipi3ssssss",
"sssss:uyyyosssssssssssssssssssssssssssssssssssssssssssssserrrrrtttttyttrtrrossssssssssssssssssssssssssssssssssssssssssss;rrytttyy<ssssssssssssssssssssssssssssssssssssssssssssssssssssssssss,ppiiOssssssssssssssssssssssssssssssssssssssssssss-uyyiyuui<sssssssssssssssssssssssssssssssssssssssssssssssss>pipiiiii<sssssssssssssssssssssssssssssssssssssssssssssssss;rtttOsssssssssssssssssssssssssssssssssssssssssssssssssssss>iiiiipii1sssssssssssssssssssssssssssssssssssssssssssssssss:iiiiiipi1ssssss",
"sssss;yyyyosssssssssssssssssssssssssssssssssssssssssssssswrrtttyttyyttttrrrOssssssssssssssssssssssssssssssssssssssssssss;ryryyyyy,ssssssssssssssssssssssssssssssssssssssssssssssssssssssssss,ppiiOssssssssssssssssssssssssssssssssssssssssssss>yiyyiuuu1sssssssssssssssssssssssssssssssssssssssssssssssss,ipippiii1sssssssssssssssssssssssssssssssssssssssssssssssss;rtttOsssssssssssssssssssssssssssssssssssssssssssssssssssss,iiiiiiii1sssssssssssssssssssssssssssssssssssssssssssssssss>uiiiipii1ssssss",
"sssss:yyyyOssssssssssssssssssssssssssssssssssssssssssssssertttyyytyyttttttrossssssssssssssssssssssssssssssssssssssssssss;tttryyyy,ssssssssssssssssssssssssssssssssssssssssssssssssssssssssss,ppppOssssssssssssssssssssssssssssssssssssssssssss>yyyiyiyy<sssssssssssssssssssssssssssssssssssssssssssssssss>ppipipip1sssssssssssssssssssssssssssssssssssssssssssssssss;rrryosssssssssssssssssssssssssssssssssssssssssssssssssssss>iipiipii1sssssssssssssssssssssssssssssssssssssssssssssssss>iiipiipp1ssssss",
"ssssss    ssssssssssssssssssssssssssssssssssssssssssssssss                 ssssssssssssssssssssssssssssssssssssssssssssss        ssssssssssssssssssssssssssssssssssssssssssssssssssssssssssss    ssssssssssssssssssssssssssssssssssssssssssssss        sssssssssssssssssssssssssssssssssssssssssssssssssss        sssssssssssssssssssssssssssssssssssssssssssssssssss    sssssssssssssssssssssssssssssssssssssssssssssssssssssss        sssssssssssssssssssssssssssssssssssssssssssssssssss        sssssss"
};
