/* XPM */
static char *play_hover[] = {
/* columns rows colors chars-per-pixel */
"202 77 70 1 ",
"  c black",
". c #4A3107",
"X c #50370A",
"o c #543A0B",
"O c #583D0E",
"+ c #62420A",
"@ c #734F0E",
"# c #74500F",
"$ c #765210",
"% c #795514",
"& c #865B0F",
"* c #8B5E0E",
"= c #865C10",
"- c #885D11",
"; c #8F600E",
": c #8D6215",
"> c #8E6418",
", c #916313",
"< c #9B6A13",
"1 c #A26D11",
"2 c #A57013",
"3 c #AD7615",
"4 c #AF7817",
"5 c #AE7919",
"6 c #B37A16",
"7 c #B57D19",
"8 c #A67828",
"9 c #A97C2B",
"0 c #BE831B",
"q c #A8823F",
"w c #C78819",
"e c #D4911B",
"r c #DE971A",
"t c #DF981B",
"y c #E09A1D",
"u c #DE9B25",
"i c #E59E21",
"p c #E09F2E",
"a c #E7A023",
"s c #E9A325",
"d c #E3A12E",
"f c #ECA629",
"g c #E3A231",
"h c #AA8441",
"j c #AF8946",
"k c #B19B75",
"l c #B59F7A",
"z c #E4AB47",
"x c #E6AD49",
"c c #E8AF4B",
"v c #EAB14D",
"b c #E7B151",
"n c #EDB551",
"m c #E6B359",
"M c #E9B55B",
"N c #F0B959",
"B c #EABD6E",
"V c #F0BF67",
"C c #EBBF71",
"Z c #ECC175",
"A c #F1CD8D",
"S c #EFCD91",
"D c #F0CE92",
"F c #F3D39A",
"G c #F3D9AA",
"H c #F8DDAF",
"J c #F5DEB7",
"K c #F5DFB8",
"L c #F6E0B9",
"P c None",
/* pixels */
"P                               PPPPPPPPPPPPPPPPPPPPPP          PPPPPPPPPPPPPPPPPPPPPPPPPPPPPPPPPPPPPPPPPPP                    PPPPPPPPPPPPPPPPPPPPP          PPPPPPPPPPPPPPPPPPPPPPPPPPPPPPPP          PP",
" gGGGGGGGGGGGGGGGGGGGGGGGGGGGGGJkPPPPPPPPPPPPPPPPPPPP pGGGGGGGGKkPPPPPPPPPPPPPPPPPPPPPPPPPPPPPPPPPPPPPPPPP1BGGGGGGGGGFGGGGFGGGJkPPPPPPPPPPPPPPPPPPP dGGGGFGGGJkPPPPPPPPPPPPPPPPPPPPPPPPPPPPPP gGGGGGGGGJkP",
" -yyyyytyyytyytryyytryyytttrryrxhPPPPPPPPPPPPPPPPPPPP -rryttyytchPPPPPPPPPPPPPPPPPPPPPPPPPPPPPPPPPPPPPPPPP+6rrrrrrrrrrrrrrrrrrzqPPPPPPPPPPPPPPPPPPP &rrrrrrrrzhPPPPPPPPPPPPPPPPPPPPPPPPPPPPPP -rtrttytyxhP",
" -ytttyyytyytyyyrtyyyyyrytttyrrzhPPPPPPPPPPPPPPPPPPPP -yttyytyychPPPPPPPPPPPPPPPPPPPPPPPPPPPPPPPPPPPPPPPPP+4rrrrrerrrrrerrerrrzqPPPPPPPPPPPPPPPPPPP &errrrrrrxhPPPPPPPPPPPPPPPPPPPPPPPPPPPPPP =rrtttyyyxhP",
" -yyyyyyytyyyyyyyyyyyryyryryrrrzhPPPPPPPPPPPPPPPPPPPP -tryyryyyxhPPPPPPPPPPPPPPPPPPPPPPPPPPPPPPPPPPPPPPPPP+6rrrrrrrrrrrrrerrrrzqPPPPPPPPPPPPPPPPPPP &rrerrrrrxhPPPPPPPPPPPPPPPPPPPPPPPPPPPPPP =rrrtttyyxhP",
" -yyytytyyyttyttyyyyyyyyyryryrrzhPPPPPPPPPPPPPPPPPPPP -yyyyyyyychPPPPPPPPPPPPPPPPPPPPPPPPPPPPPPPPPPPPPPPPP+6ttttrrtrrrrrrrrrerzqPPPPPPPPPPPPPPPPPPP &rrrrrrrrzhPPPPPPPPPPPPPPPPPPPPPPPPPPPPPP -rryrtttyxhP",
" -yryyytytytyyyyyyyryyyyryyryrrzhPPPPPPPPPPPPPPPPPPPP -ttyyyytyxhPPPPPPPPPPPPPPPPPPPPPPPPPPPPPPPPPPPPPPPPP+6tyytrtrrrrrrrrrrrrzqPPPPPPPPPPPPPPPPPPP &rrerrrrrzhPPPPPPPPPPPPPPPPPPPPPPPPPPPPPP -rryttttrxhP",
" -yyttyyytyyyttyryyyyrrryrryrryxhPPPPPPPPPPPPPPPPPPPP -yyyttyyychPPPPPPPPPPPPPPPPPPPPPPPPPPPPPPPPPPPPPPPPP+7yyttrtytrrrrrrerrrzqPPPPPPPPPPPPPPPPPPP &rrrrrrrrxhPPPPPPPPPPPPPPPPPPPPPPPPPPPPPP =rryrttyyxhP",
" -ytyyyyyyyytyyytyyyttyrrrrryrrghPPPPPPPPPPPPPPPPPPPP -yttyyyyychPPPPPPPPPPPPPPPPPPPPPPPPPPPPPPPPPPPPPPPPP+7iyyyiyyyyyyyrrrrrrzqPPPPPPPPPPPPPPPPPPP &rrrrrrrrxhPPPPPPPPPPPPPPPPPPPPPPPPPPPPPP -rrrryyryxqP",
" -yyyrryyyytttytyyttttryryryrrychPPPPPPPPPPPPPPPPPPPP -yyyyttiychPPPPPPPPPPPPPPPPPPPPPPPPPPPPPPPPPPPPPPPPP+7yiiiyyyyyyyyrrrrrrzqPPPPPPPPPPPPPPPPPPP &rerrrrrrzhPPPPPPPPPPPPPPPPPPPPPPPPPPPPPP -rrryrryrxqP",
" -tyyyryyyyyttyyyyyyttyryyyyrryzhPPPPPPPPPPPPPPPPPPPP -ytyyyyyychPPPPPPPPPPPPPPPPPPPPPPPPPPPPPPPPPPPPPPPPP+0yiiiayyyyyyyyrrrryzqPPPPPPPPPPPPPPPPPPP &rrrrrrrrxhPPPPPPPPPPPPPPPPPPPPPPPPPPPPPP &rrrryyryxhP",
" -ttyyyyyye4#oOOooooooooXoXXooo1h          PPPPPPPPPP -yyyiyyyyxhPPPPPPPPPPPPPPPPPPPPPPPPPPPPPPP          :$oOooOOoOoooooooooo;9          PPPPPPPPP &rrrrrrrrzhPPPPPPPPPPPPPPPPPPPPPPPPPPPPPP &rrryrryrxhP",
" -yrtyyyyyt&                    rGGGGGGGGGJ PPPPPPPPP :yyyyyyyychPPPPPPPPPPPPPPPPPPPPPPPPPPPPPP gJGGGGGGGF9                    ;BGGGGGGGGJ PPPPPPPP &rrrrrrrrxqPPPPPPPPPPPPPPPPPPPPPPPPPPPPPP -yyryryryzqP",
" &ryttyryyxhPPPPPPPPPPPPPPPPPPP =yryytytttM PPPPPPPPP -yyiyiyyyxhPPPPPPPPPPPPPPPPPPPPPPPPPPPPPP :yiyiiiiivjPPPPPPPPPPPPPPPPPPPP+6yrrrrerrm PPPPPPPP -rrrrrrrrxhPPPPPPPPPPPPPPPPPPPPPPPPPPPPPP -rryrryyyxhP",
" -rrryyyyyxhPPPPPPPPPPPPPPPPPPP -yrytyyyttM PPPPPPPPP -yyyyyyitxhPPPPPPPPPPPPPPPPPPPPPPPPPPPPPP :yyaiiyyivhPPPPPPPPPPPPPPPPPPPP+6rrrrrrrrm PPPPPPPP &rryrrrrrxqPPPPPPPPPPPPPPPPPPPPPPPPPPPPPP &tyyryyyrxhP",
" -ryyrtyytxqPPPPPPPPPPPPPPPPPPP -yyytytyyyM PPPPPPPPP -yyyyyyytxhPPPPPPPPPPPPPPPPPPPPPPPPPPPPPP :yayyaiiicjPPPPPPPPPPPPPPPPPPPP+6rrrrrrrrm PPPPPPPP -rrrrrrrrxqPPPPPPPPPPPPPPPPPPPPPPPPPPPPPP -yyyyyyyyzqP",
" &ryrytyyyzhPPPPPPPPPPPPPPPPPPP =ttttttyyyM PPPPPPPPP :yyyyyyytchPPPPPPPPPPPPPPPPPPPPPPPPPPPPPP :iiiiiiiivjPPPPPPPPPPPPPPPPPPPP+6rrrrrrrrm PPPPPPPP -tttrrrrrxqPPPPPPPPPPPPPPPPPPPPPPPPPPPPPP -tttyyyyyxhP",
" &rrrrtryyxhPPPPPPPPPPPPPPPPPPP ;utuyyyytyM PPPPPPPPP ;yyayyyytxhPPPPPPPPPPPPPPPPPPPPPPPPPPPPPP :isisiiiivhPPPPPPPPPPPPPPPPPPPP+6rrrrrrrrm PPPPPPPP -yttryrrrzqPPPPPPPPPPPPPPPPPPPPPPPPPPPPPP -ytittyyychP",
" -rrryryyyxhPPPPPPPPPPPPPPPPPPP -tytyyttyyM PPPPPPPPP -tyyyyytychPPPPPPPPPPPPPPPPPPPPPPPPPPPPPP :iaiiiiiivhPPPPPPPPPPPPPPPPPPPP+6rrrrrrrtm PPPPPPPP -tttyrrrrzqPPPPPPPPPPPPPPPPPPPPPPPPPPPPPP -ytyyyytyxhP",
" &rrrrryryxhPPPPPPPPPPPPPPPPPPP ;yyytyyyyyM PPPPPPPPP :yiyyyyyyxhPPPPPPPPPPPPPPPPPPPPPPPPPPPPPP :sisisiiivjPPPPPPPPPPPPPPPPPPPP+6rrrrrtrrm PPPPPPPP -yyyryrrrxhPPPPPPPPPPPPPPPPPPPPPPPPPPPPPP -yittyyytxhP",
" =rryryrryzhPPPPPPPPPPPPPPPPPPP ;tttyyyyytM PPPPPPPPP :yyyyyyyyxhPPPPPPPPPPPPPPPPPPPPPPPPPPPPPP :sisasiasvjPPPPPPPPPPPPPPPPPPPP+6tttrtrtrM PPPPPPPP -tttyttrrxqPPPPPPPPPPPPPPPPPPPPPPPPPPPPPP -yttttyyyxhP",
" -rrryryytxhPPPPPPPPPPPPPPPPPPP &yttrrryttM PPPPPPPPP -tyyyyyytxhPPPPPPPPPPPPPPPPPPPPPPPPPPPPPP :issaiaainjPPPPPPPPPPPPPPPPPPPP+6ttttttttM PPPPPPPP ooooooooo:8          PPPPPPPPPPP          <oooooooo=;P",
" -ryyrryttxhPPPPPPPPPPPPPPPPPPP &yyryryrttM PPPPPPPPP :ayyyytutxhPPPPPPPPPPPPPPPPPPPPPPPPPPPPPP :aassssisnjPPPPPPPPPPPPPPPPPPPP+6tttttuyyM PPPPPPPPP          ;ZGGGGGGGGL PPPPPPPPP2ZGGGGGGGGZ          PP",
" &rrrryrttzhPPPPPPPPPPPPPPPPPPP *rryryryttM PPPPPPPPP ;yyyyytitchPPPPPPPPPPPPPPPPPPPPPPPPPPPPPP :ssaassssvjPPPPPPPPPPPPPPPPPPPP+6ttttytttM PPPPPPPPPPPPPPPPPPP+6tyyytytyM PPPPPPPPP+6ttyrrtttM PPPPPPPPPPP",
" -ryyryrttxhPPPPPPPPPPPPPPPPPPP &yyryryrryM PPPPPPPPP -yytyyytychPPPPPPPPPPPPPPPPPPPPPPPPPPPPPP :ssssssssvjPPPPPPPPPPPPPPPPPPPP+6yttyyttyM PPPPPPPPPPPPPPPPPPP+6yyyyyyyaM PPPPPPPPP+6rtyrrryrM PPPPPPPPPPP",
" &rrrrryrtxhPPPPPPPPPPPPPPPPPPP &yyrrrrryrM PPPPPPPPP -yyyytyyyxhPPPPPPPPPPPPPPPPPPPPPPPPPPPPPP >sssssssfnjPPPPPPPPPPPPPPPPPPPP+6yyytyiyyM PPPPPPPPPPPPPPPPPPP+6ytyyyyyyM PPPPPPPPP+6ttrrrrrrM PPPPPPPPPPP",
" -rrrrrrrrzhPPPPPPPPPPPPPPPPPPP &rrrryrrrrm PPPPPPPPP -yytyttytchPPPPPPPPPPPPPPPPPPPPPPPPPPPPPP >ssssssssvjPPPPPPPPPPPPPPPPPPPP+7yyyyyyyyM PPPPPPPPPPPPPPPPPPP+6yyyyyyyyM PPPPPPPPP+6rtrrrrrrm PPPPPPPPPPP",
" &rrrrrrrrzhPPPPPPPPPPPPPPPPPPP *ryyrrrrrrm PPPPPPPPP -ttttyyyyxhPPPPPPPPPPPPPPPPPPPPPPPPPPPPPP :sfsssssfnjPPPPPPPPPPPPPPPPPPPP+6yyyyttyyM PPPPPPPPPPPPPPPPPPP+6ttyyyyyyM PPPPPPPPP+6ttrrrrrrM PPPPPPPPPPP",
" &rrrrrrrrxhPPPPPPPPPPPPPPPPPPP &rrrrrrrrrm PPPPPPPPP -tryyyyyyxhPPPPPPPPPPPPPPPPPPPPPPPPPPPPPP >sfssfsssnjPPPPPPPPPPPPPPPPPPPP+7yyyyiyyyM PPPPPPPPPPPPPPPPPPP+4yyyyyyyyM PPPPPPPPP+6trtryrrrm PPPPPPPPPPP",
" &errrrrrrxhPPPPPPPPPPPPPPPPPPP *rrrrrrrrrm PPPPPPPPP =rtttttyychPPPPPPPPPPPPPPPPPPPPPPPPPPPPPP >sssssfsfnjPPPPPPPPPPPPPPPPPPPP+6uyyyyyyiM PPPPPPPPPPPPPPPPPPP+0yyutytyyM PPPPPPPPP+6trrrryrrm PPPPPPPPPPP",
" &rrrrrrrrxhPPPPPPPPPPPPPPPPPPP *yyyrryrrrm PPPPPPPPP -rryrtyyyxhPPPPPPPPPPPPPPPPPPPPPPPPPPPPPP >ffssfssfnjPPPPPPPPPPPPPPPPPPPP+6iiyyyyyyM PPPPPPPPPPPPPPPPPPP+6ytityyttM PPPPPPPPP+6trrrrrrrm PPPPPPPPPPP",
" &errrrrrrMk                    3@XoXXXXXo1 PPPPPPPPP =rrryrytyxhPPPPPPPPPPPPPPPPPPPPPPPPPPPPPP >ssffsfffZl                    2riyyyyyyiM PPPPPPPPPPPPPPPPPPP+6ittttyyyM PPPPPPPPP+6rrrrrrrym PPPPPPPPPPP",
" &rrrrerrrxAGGGGGGGGGGGGGGGGGGGZ1          PPPPPPPPPP &rrryryyychPPPPPPPPPPPPPPPPPPPPPPPPPPPPPP >ffffffsiNFHHHHHHHHHGHGGHGGGGGAvdyiiyyyyyM PPPPPPPPPPPPPPPPPPPXooooooooow          *@oooooooo2 PPPPPPPPPPP",
" &rrrrrrrrrrrrrrttrrtttytyyttytxqPPPPPPPPPPPPPPPPPPPP &ryrryryyxhPPPPPPPPPPPPPPPPPPPPPPPPPPPPPP >sfffsffffffffiffsissassssaisiiiyayyyyytyM PPPPPPPPPPPPPPPPPPPP          gGGGGGGGGF8          PPPPPPPPPPPP",
" &rrrrrrrrrrrrrrttttttyyyytytyyxhPPPPPPPPPPPPPPPPPPPP &rrrryyyychPPPPPPPPPPPPPPPPPPPPPPPPPPPPPP >ffsffffffffififssfsssasasaaiiiiyyyyaiyaaM PPPPPPPPPPPPPPPPPPPPPPPPPPPPP -ttttyrrrzhPPPPPPPPPPPPPPPPPPPPPP",
" &rerrrrrrrryrryttytyyyttytyyyyxhPPPPPPPPPPPPPPPPPPPP &rrrrryyyxhPPPPPPPPPPPPPPPPPPPPPPPPPPPPPP >ffffffffffffffisssssssaaaaisiiiaayayyyyyM PPPPPPPPPPPPPPPPPPPPPPPPPPPPP &yryrrrrrxhPPPPPPPPPPPPPPPPPPPPPP",
" &rerrrryrrryyryyytyyyyyyyyyyytxqPPPPPPPPPPPPPPPPPPPP &rrrryryychPPPPPPPPPPPPPPPPPPPPPPPPPPPPPP >ffffffffffffssssssssssasssayiiyyayyyayayM PPPPPPPPPPPPPPPPPPPPPPPPPPPPP -ryrrrrrrzqPPPPPPPPPPPPPPPPPPPPPP",
" &rrrrrrrrryrryytyyyyyyyyyyyyyyxhPPPPPPPPPPPPPPPPPPPP &rrrrrryyxhPPPPPPPPPPPPPPPPPPPPPPPPPPPPPP >ffffffffffffsssssssssssssyasiisayayyyyyyM PPPPPPPPPPPPPPPPPPPPPPPPPPPPP -rrrtrtrrzqPPPPPPPPPPPPPPPPPPPPPP",
" &rrrrrrrrrrryyrtyyyyyyyyyyyyiyxhPPPPPPPPPPPPPPPPPPPP &rrrrryyyxhPPPPPPPPPPPPPPPPPPPPPPPPPPPPPP >fffffffffffssfsssssssaaayyssiiiyaayayyyyM PPPPPPPPPPPPPPPPPPPPPPPPPPPPP &rrrrtrrrzqPPPPPPPPPPPPPPPPPPPPPP",
" &rrrrrrrryryryyyyyyiyyyyyyyyyyxqPPPPPPPPPPPPPPPPPPPP &rrrrrrytxhPPPPPPPPPPPPPPPPPPPPPPPPPPPPPP ,ffffffffffffsssssssasssssssyisyaayyayyayM PPPPPPPPPPPPPPPPPPPPPPPPPPPPP &ryrrrrrrxqPPPPPPPPPPPPPPPPPPPPPP",
" &rrrrrrrrrrytyyytytyyyyyuittyyxhPPPPPPPPPPPPPPPPPPPP &rrrrytttchPPPPPPPPPPPPPPPPPPPPPPPPPPPPPP :sfffsfffffssssssssssaissyisiiiiiyiyityyyM PPPPPPPPPPPPPPPPPPPPPPPPPPPPP -rtttrrrrxqPPPPPPPPPPPPPPPPPPPPPP",
" &rrrrtrrrrrryyyytyyyttytttyyyyxhPPPPPPPPPPPPPPPPPPPP &rrrrrtttchPPPPPPPPPPPPPPPPPPPPPPPPPPPPPP :sssfsffsffsffsssssassssssiiiyiiayiitiyyyM PPPPPPPPPPPPPPPPPPPPPPPPPPPPP -ttttrtrrxqPPPPPPPPPPPPPPPPPPPPPP",
" &rtrtrrrye3@ooooooOOoooooooooo=*PPPPPPPPPPPPPPPPPPPP -yrrryruyzhPPPPPPPPPPPPPPPPPPPPPPPPPPPPPP :ssssfsffu7%OOOOOOOOOOOOoOoOoO+=0iiyaityyM PPPPPPPPPPPPPPPPPPPPPPPPPPPPP -tyytttytzqPPPPPPPPPPPPPPPPPPPPPP",
" &rrrrrrryr*                    PPPPPPPPPPPPPPPPPPPPP -rryryryyxhPPPPPPPPPPPPPPPPPPPPPPPPPPPPPP :sssssfsfs>                    .5yiityuyyM PPPPPPPPPPPPPPPPPPPPPPPPPPPPP -yyyyytttxqPPPPPPPPPPPPPPPPPPPPPP",
" &rrtrrrrrxhPPPPPPPPPPPPPPPPPPPPPPPPPPPPPPPPPPPPPPPPP &yrryrttyxhPPPPPPPPPPPPPPPPPPPPPPPPPPPPPP :ssssssssnjPPPPPPPPPPPPPPPPPPPP+7iyyiyyyyM PPPPPPPPPPPPPPPPPPPPPPPPPPPPP -yyyyryyychPPPPPPPPPPPPPPPPPPPPPP",
" -rtrrryytxqPPPPPPPPPPPPPPPPPPPPPPPPPPPPPPPPPPPPPPPPP &yryrytttxhPPPPPPPPPPPPPPPPPPPPPPPPPPPPPP :issisfssnjPPPPPPPPPPPPPPPPPPPP+7iiiyyyyiM PPPPPPPPPPPPPPPPPPPPPPPPPPPPP -yyyyyyyyxqPPPPPPPPPPPPPPPPPPPPPP",
" -yrtttrttxhPPPPPPPPPPPPPPPPPPPPPPPPPPPPPPPPPPPPPPPPP &yryyryyyxhPPPPPPPPPPPPPPPPPPPPPPPPPPPPPP :ssisssssnjPPPPPPPPPPPPPPPPPPPP+7yyiyyyyyM PPPPPPPPPPPPPPPPPPPPPPPPPPPPP -ryryyyyyxhPPPPPPPPPPPPPPPPPPPPPP",
" &rtttttyyxhPPPPPPPPPPPPPPPPPPPPPPPPPPPPPPPPPPPPPPPPP &ryryyyyyxhPPPPPPPPPPPPPPPPPPPPPPPPPPPPPP :ssssssssnjPPPPPPPPPPPPPPPPPPPP+7iyyiyyyyM PPPPPPPPPPPPPPPPPPPPPPPPPPPPP &yyyyyryyxhPPPPPPPPPPPPPPPPPPPPPP",
" -yyyyyyyyzhPPPPPPPPPPPPPPPPPPPPPPPPPPPPPPPPPPPPPPPPP -ytttytyyxhPPPPPPPPPPPPPPPPPPPPPPPPPPPPPP :asssssssnjPPPPPPPPPPPPPPPPPPPP+6iyyyyyttM PPPPPPPPPPPPPPPPPPPPPPPPPPPPP -ytyyytyychPPPPPPPPPPPPPPPPPPPPPP",
" -yyyyyyyycqPPPPPPPPPPPPPPPPPPPPPPPPPPPPPPPPPPPPPPPPP -yyyyytyychPPPPPPPPPPPPPPPPPPPPPPPPPPPPPP :saaassssnjPPPPPPPPPPPPPPPPPPPP+6iyyyyytuM PPPPPPPPPPPPPPPPPPPPPPPPPPPPP -tyytyyyyxhPPPPPPPPPPPPPPPPPPPPPP",
" -yyyyyyyyxqPPPPPPPPPPPPPPPPPPPPPPPPPPPPPPPPPPPPPPPPP -yytytyyyxhPPPPPPPPPPPPPPPPPPPPPPPPPPPPPP :ssssssssnjPPPPPPPPPPPPPPPPPPPP+7yiytytytM PPPPPPPPPPPPPPPPPPPPPPPPPPPPP -ytyytyyychPPPPPPPPPPPPPPPPPPPPPP",
" -yyyyyyyychPPPPPPPPPPPPPPPPPPPPPPPPPPPPPPPPPPPPPPPPP &yytyyyyycjPPPPPPPPPPPPPPPPPPPPPPPPPPPPPP :aassssssnjPPPPPPPPPPPPPPPPPPPP+6ytyyyyttM PPPPPPPPPPPPPPPPPPPPPPPPPPPPP -ttttyyyychPPPPPPPPPPPPPPPPPPPPPP",
" -yyyyyyyyxhPPPPPPPPPPPPPPPPPPPPPPPPPPPPPPPPPPPPPPPPP -yytyyyyychPPPPPPPPPPPPPPPPPPPPPPPPPPPPPP :asssssssnjPPPPPPPPPPPPPPPPPPPP+5ttyytyttm PPPPPPPPPPPPPPPPPPPPPPPPPPPPP -trttyyyychPPPPPPPPPPPPPPPPPPPPPP",
" -yyyyyyytxhPPPPPPPPPPPPPPPPPPPPPPPPPPPPPPPPPPPPPPPPP &ytyttyyyxhPPPPPPPPPPPPPPPPPPPPPPPPPPPPPP :ssaaaassnjPPPPPPPPPPPPPPPPPPPP+0tyyiyyttM PPPPPPPPPPPPPPPPPPPPPPPPPPPPP -yyyyytyychPPPPPPPPPPPPPPPPPPPPPP",
" ,yyyyyyyyxhPPPPPPPPPPPPPPPPPPPPPPPPPPPPPPPPPPPPPPPPP &ytttyryyzhPPPPPPPPPPPPPPPPPPPPPPPPPPPPPP :sassssssnjPPPPPPPPPPPPPPPPPPPP+6tyytttttM PPPPPPPPPPPPPPPPPPPPPPPPPPPPP -ytytyyyychPPPPPPPPPPPPPPPPPPPPPP",
" -yyyyyyyyxhPPPPPPPPPPPPPPPPPPPPPPPPPPPPPPPPPPPPPPPPP &yyrtryrychPPPPPPPPPPPPPPPPPPPPPPPPPPPPPP :asasasssnjPPPPPPPPPPPPPPPPPPPP+0yyyyutttM PPPPPPPPPPPPPPPPPPPPPPPPPPPPP -ytyyytyychPPPPPPPPPPPPPPPPPPPPPP",
" -iyyyyryyxhPPPPPPPPPPPPPPPPPPPPPPPPPPPPPPPPPPPPPPPPP -yryyryryzhPPPPPPPPPPPPPPPPPPPPPPPPPPPPPP :asasasasvjPPPPPPPPPPPPPPPPPPPP+7yiityatyM PPPPPPPPPPPPPPPPPPPPPPPPPPPPP -yyttyyyychPPPPPPPPPPPPPPPPPPPPPP",
" -yyryyyyrzhPPPPPPPPPPPPPPPPPPPPPPPPPPPPPPPPPPPPPPPPP =rrrrrrrrzhPPPPPPPPPPPPPPPPPPPPPPPPPPPPPP :ssaasassnjPPPPPPPPPPPPPPPPPPPP+6iyyyyyttM PPPPPPPPPPPPPPPPPPPPPPPPPPPPP -tyyyytyycqPPPPPPPPPPPPPPPPPPPPPP",
" -yryyytyrxhPPPPPPPPPPPPPPPPPPPPPPPPPPPPPPPPPPPPPPPPP -rrrrrryrzqPPPPPPPPPPPPPPPPPPPPPPPPPPPPPP :aassssasvjPPPPPPPPPPPPPPPPPPPP+7yiyytyyyM PPPPPPPPPPPPPPPPPPPPPPPPPPPPP -yyytyyyycqPPPPPPPPPPPPPPPPPPPPPP",
" =yyyttrryzhPPPPPPPPPPPPPPPPPPPPPPPPPPPPPPPPPPPPPPPPP =ryrrrrryzhPPPPPPPPPPPPPPPPPPPPPPPPPPPPPP :aaaaaassnjPPPPPPPPPPPPPPPPPPPP+6iyyattyym PPPPPPPPPPPPPPPPPPPPPPPPPPPPP -ytyyytyyxhPPPPPPPPPPPPPPPPPPPPPP",
" -yyttryyrzhPPPPPPPPPPPPPPPPPPPPPPPPPPPPPPPPPPPPPPPPP =rrrrrrryzhPPPPPPPPPPPPPPPPPPPPPPPPPPPPPP :sysiaaaivjPPPPPPPPPPPPPPPPPPPP+7yyiyyytym PPPPPPPPPPPPPPPPPPPPPPPPPPPPP -yyttyyyyzhPPPPPPPPPPPPPPPPPPPPPP",
" -tytryrrrzhPPPPPPPPPPPPPPPPPPPPPPPPPPPPPPPPPPPPPPPPP -rrrryryyzqPPPPPPPPPPPPPPPPPPPPPPPPPPPPPP :asaaaaasbhPPPPPPPPPPPPPPPPPPPP+7yyyytyytM PPPPPPPPPPPPPPPPPPPPPPPPPPPPP =yryytyyyxqPPPPPPPPPPPPPPPPPPPPPP",
" -yttyrrrrzhPPPPPPPPPPPPPPPPPPPPPPPPPPPPPPPPPPPPPPPPP -rrryryryzhPPPPPPPPPPPPPPPPPPPPPPPPPPPPPP :yaaaaaianjPPPPPPPPPPPPPPPPPPPP+7yytyytytM PPPPPPPPPPPPPPPPPPPPPPPPPPPPP -yyytyyyrxhPPPPPPPPPPPPPPPPPPPPPP",
" -yttrrrrrxhPPPPPPPPPPPPPPPPPPPPPPPPPPPPPPPPPPPPPPPPP =rrrryryrMk                    PPPPPPPPPP :aisyaiaanjPPPPPPPPPPPPPPPPPPPP+7yyyytyttM PPPPPPPPPPPPPPPPPPPPPPPPPPPPP -ytyyytyyxhPPPPPPPPPPPPPPPPPPPPPP",
" -ryyrrrrrzhPPPPPPPPPPPPPPPPPPPPPPPPPPPPPPPPPPPPPPPPP &rrrttttybDGGGGGGGGGGGHGGGGGGHLkPPPPPPPPP :iiiiiiiivhPPPPPPPPPPPPPPPPPPPP+7tyytttttm PPPPPPPPPPPPPPPPPPPPPPPPPPPPP -ytyyttttxhPPPPPPPPPPPPPPPPPPPPPP",
" &yryrrrrrzqPPPPPPPPPPPPPPPPPPPPPPPPPPPPPPPPPPPPPPPPP &yrttttytyyyyytytiutyyyyayyyyyvjPPPPPPPPP :iiiaiiiivjPPPPPPPPPPPPPPPPPPPP+6tytuttttm PPPPPPPPPPPPPPPPPPPPPPPPPPPPP -yttttttyxhPPPPPPPPPPPPPPPPPPPPPP",
" -ryrrrrrrzhPPPPPPPPPPPPPPPPPPPPPPPPPPPPPPPPPPPPPPPPP &yttttyttyyyyytyyyyyyyyyyytuyixjPPPPPPPPP :iaasiiaivjPPPPPPPPPPPPPPPPPPPP+6ytttttrtm PPPPPPPPPPPPPPPPPPPPPPPPPPPPP -ttttttrrxqPPPPPPPPPPPPPPPPPPPPPP",
" -yrryyrrrxhPPPPPPPPPPPPPPPPPPPPPPPPPPPPPPPPPPPPPPPPP &trtttyyyyyryyyyytyyyyyyyyititvqPPPPPPPPP -yyiyiiyivhPPPPPPPPPPPPPPPPPPPP+6ttttttrtm PPPPPPPPPPPPPPPPPPPPPPPPPPPPP -ttttttyrxhPPPPPPPPPPPPPPPPPPPPPP",
" -ttyrrrryzqPPPPPPPPPPPPPPPPPPPPPPPPPPPPPPPPPPPPPPPPP -tyttytyyyyyyyyyyyyyyyiyyytyiivhPPPPPPPPP ,yyaiyiiivhPPPPPPPPPPPPPPPPPPPP+6tttrrrrrm PPPPPPPPPPPPPPPPPPPPPPPPPPPPP -tytttttrxhPPPPPPPPPPPPPPPPPPPPPP",
" -ttrrrrrrzhPPPPPPPPPPPPPPPPPPPPPPPPPPPPPPPPPPPPPPPPP -tttyyyytyytyyyyyyyyiyyyyyiyyyvhPPPPPPPPP :ysyiiiiivhPPPPPPPPPPPPPPPPPPPP+6tttrrrrrm PPPPPPPPPPPPPPPPPPPPPPPPPPPPP &rrttyrrrzhPPPPPPPPPPPPPPPPPPPPPP",
" -ttryrrrrxhPPPPPPPPPPPPPPPPPPPPPPPPPPPPPPPPPPPPPPPPP =ytyytyyyyyyyyyyyyyyyyyyyiyyiyxhPPPPPPPPP -yysayyiyvhPPPPPPPPPPPPPPPPPPPP+6tyrrrrrrm PPPPPPPPPPPPPPPPPPPPPPPPPPPPP -yryrrrrrzhPPPPPPPPPPPPPPPPPPPPPP",
" -ttyryyryzqPPPPPPPPPPPPPPPPPPPPPPPPPPPPPPPPPPPPPPPPP -yyryyyyyyyyyyyyyyyyyyyyyyiyyyvhPPPPPPPPP :iyayysyyvjPPPPPPPPPPPPPPPPPPPP+6ttrrrrrrm PPPPPPPPPPPPPPPPPPPPPPPPPPPPP &ryryrrrrxhPPPPPPPPPPPPPPPPPPPPPP",
" -ttttttryzqPPPPPPPPPPPPPPPPPPPPPPPPPPPPPPPPPPPPPPPPP -yyytytytyyyyttyttyyttyyyyyyiyvhPPPPPPPPP -iiyiyiiivhPPPPPPPPPPPPPPPPPPPP+6ttrrrrrrm PPPPPPPPPPPPPPPPPPPPPPPPPPPPP -ryrrrrryzhPPPPPPPPPPPPPPPPPPPPPP",
" -tttttttrxqPPPPPPPPPPPPPPPPPPPPPPPPPPPPPPPPPPPPPPPPP -ytyyytyyyttyyyyttyyttytyyyyyyxhPPPPPPPPP -yyiyiyyyvhPPPPPPPPPPPPPPPPPPPP+6rrrrtrrrm PPPPPPPPPPPPPPPPPPPPPPPPPPPPP -yyryrrrrzqPPPPPPPPPPPPPPPPPPPPPP",
" ooooooooo=*PPPPPPPPPPPPPPPPPPPPPPPPPPPPPPPPPPPPPPPPP XoooooooooOoooOoOoOooOoOOooooo=:PPPPPPPPP ooooooooo=:PPPPPPPPPPPPPPPPPPPP.ooooooooX1 PPPPPPPPPPPPPPPPPPPPPPPPPPPPP XooooXXoo&;PPPPPPPPPPPPPPPPPPPPPP",
"P          PPPPPPPPPPPPPPPPPPPPPPPPPPPPPPPPPPPPPPPPPPP                               PPPPPPPPPPP          PPPPPPPPPPPPPPPPPPPPPP          PPPPPPPPPPPPPPPPPPPPPPPPPPPPPPP          PPPPPPPPPPPPPPPPPPPPPPP",
"PPPPPPPPPPPPPPPPPPPPPPPPPPPPPPPPPPPPPPPPPPPPPPPPPPPPPPPPPPPPPPPPPPPPPPPPPPPPPPPPPPPPPPPPPPPPPPPPPPPPPPPPPPPPPPPPPPPPPPPPPPPPPPPPPPPPPPPPPPPPPPPPPPPPPPPPPPPPPPPPPPPPPPPPPPPPPPPPPPPPPPPPPPPPPPPPPPPPPPPPPP"
};
