/* XPM */
static char *floor[] = {
/* columns rows colors chars-per-pixel */
"64 64 4 1 ",
"  c #929292",
". c gray72",
"X c gray86",
"o c gray95",
/* pixels */
"XX..  ..ooooooXXXXXXXXXX..  ..ooooooooooooXXXXXXXX..  ..ooooXXXX",
"XX..  ..ooooooXXXXXXXXXX..  ..ooooooooooooXXXXXXXX..  ..ooooXXXX",
"XXXX  ooXXXXXXXXXXXXXXXXXX  ooXXXXXXXXXXXXXXXXXXXXXX  ooXXXXXXXX",
"XXXX  ooXXXXXXXXXXXXXXXXXX  ooXXXXXXXXXXXXXXXXXXXXXX  ooXXXXXXXX",
"XX..  ..XXXXXXXXXXXXXXXX..  ..XXXXXXXXXXXXXXXXXXXX..  ..XXXXXXXX",
"XX..  ..XXXXXXXXXXXXXXXX..  ..XXXXXXXXXXXXXXXXXXXX..  ..XXXXXXXX",
"                                                                ",
"                                                                ",
"..  ..ooooooooXXXXXXXX..  ..ooooooXXXXXXXX..  ..ooooooooXXXXXXXX",
"..  ..ooooooooXXXXXXXX..  ..ooooooXXXXXXXX..  ..ooooooooXXXXXXXX",
"XX  ooXXXXXXXXXXXXXXXXXX  ooXXXXXXXXXXXXXXXX  ooXXXXXXXXXXXXXXXX",
"XX  ooXXXXXXXXXXXXXXXXXX  ooXXXXXXXXXXXXXXXX  ooXXXXXXXXXXXXXXXX",
"..  ..XXXXXXXXXXXXXXXX..  ..XXXXXXXXXXXXXX..  ..XXXXXXXXXXXXXXXX",
"..  ..XXXXXXXXXXXXXXXX..  ..XXXXXXXXXXXXXX..  ..XXXXXXXXXXXXXXXX",
"                                                                ",
"                                                                ",
"ooooooXXXXXX..  ..ooooooooXXXXXX..  ..ooooooooXXXXXX..  ..oooooo",
"ooooooXXXXXX..  ..ooooooooXXXXXX..  ..ooooooooXXXXXX..  ..oooooo",
"XXXXXXXXXXXXXX  ooXXXXXXXXXXXXXXXX  ooXXXXXXXXXXXXXXXX  ooXXXXXX",
"XXXXXXXXXXXXXX  ooXXXXXXXXXXXXXXXX  ooXXXXXXXXXXXXXXXX  ooXXXXXX",
"XXXXXXXXXXXX..  ..XXXXXXXXXXXXXX..  ..XXXXXXXXXXXXXX..  ..XXXXXX",
"XXXXXXXXXXXX..  ..XXXXXXXXXXXXXX..  ..XXXXXXXXXXXXXX..  ..XXXXXX",
"                                                                ",
"                                                                ",
"..  ..ooooooXXXXXX..  ..ooooooooooooXXXXXXXXXX..  ..ooooooXXXXXX",
"..  ..ooooooXXXXXX..  ..ooooooooooooXXXXXXXXXX..  ..ooooooXXXXXX",
"XX  ooXXXXXXXXXXXXXX  ooXXXXXXXXXXXXXXXXXXXXXXXX  ooXXXXXXXXXXXX",
"XX  ooXXXXXXXXXXXXXX  ooXXXXXXXXXXXXXXXXXXXXXXXX  ooXXXXXXXXXXXX",
"..  ..XXXXXXXXXXXX..  ..XXXXXXXXXXXXXXXXXXXXXX..  ..XXXXXXXXXXXX",
"..  ..XXXXXXXXXXXX..  ..XXXXXXXXXXXXXXXXXXXXXX..  ..XXXXXXXXXXXX",
"                                                                ",
"                                                                ",
"ooXXXX..  ..ooooooooXXXXXXXXXXXX..  ..ooooooXXXXXXXXXX..  ..oooo",
"ooXXXX..  ..ooooooooXXXXXXXXXXXX..  ..ooooooXXXXXXXXXX..  ..oooo",
"XXXXXXXX  ooXXXXXXXXXXXXXXXXXXXXXX  ooXXXXXXXXXXXXXXXXXX  ooXXXX",
"XXXXXXXX  ooXXXXXXXXXXXXXXXXXXXXXX  ooXXXXXXXXXXXXXXXXXX  ooXXXX",
"XXXXXX..  ..XXXXXXXXXXXXXXXXXXXX..  ..XXXXXXXXXXXXXXXX..  ..XXXX",
"XXXXXX..  ..XXXXXXXXXXXXXXXXXXXX..  ..XXXXXXXXXXXXXXXX..  ..XXXX",
"                                                                ",
"                                                                ",
"XX..  ..ooooooooXXXXXX..  ..ooooooooXXXXXXXXXXXXXX..  ..ooooXXXX",
"XX..  ..ooooooooXXXXXX..  ..ooooooooXXXXXXXXXXXXXX..  ..ooooXXXX",
"XXXX  ooXXXXXXXXXXXXXXXX  ooXXXXXXXXXXXXXXXXXXXXXXXX  ooXXXXXXXX",
"XXXX  ooXXXXXXXXXXXXXXXX  ooXXXXXXXXXXXXXXXXXXXXXXXX  ooXXXXXXXX",
"XX..  ..XXXXXXXXXXXXXX..  ..XXXXXXXXXXXXXXXXXXXXXX..  ..XXXXXXXX",
"XX..  ..XXXXXXXXXXXXXX..  ..XXXXXXXXXXXXXXXXXXXXXX..  ..XXXXXXXX",
"                                                                ",
"                                                                ",
"ooooooXXXXXXXX..  ..ooooooXXXXXXXX..  ..ooooooXXXXXXXX..  ..oooo",
"ooooooXXXXXXXX..  ..ooooooXXXXXXXX..  ..ooooooXXXXXXXX..  ..oooo",
"XXXXXXXXXXXXXXXX  ooXXXXXXXXXXXXXXXX  ooXXXXXXXXXXXXXXXX  ooXXXX",
"XXXXXXXXXXXXXXXX  ooXXXXXXXXXXXXXXXX  ooXXXXXXXXXXXXXXXX  ooXXXX",
"XXXXXXXXXXXXXX..  ..XXXXXXXXXXXXXX..  ..XXXXXXXXXXXXXX..  ..XXXX",
"XXXXXXXXXXXXXX..  ..XXXXXXXXXXXXXX..  ..XXXXXXXXXXXXXX..  ..XXXX",
"                                                                ",
"                                                                ",
"ooooXXXXXX..  ..ooooooooXXXXXXXXXXXXXXXX..  ..ooooooXXXXXX..  ..",
"ooooXXXXXX..  ..ooooooooXXXXXXXXXXXXXXXX..  ..ooooooXXXXXX..  ..",
"XXXXXXXXXXXX  ooXXXXXXXXXXXXXXXXXXXXXXXXXX  ooXXXXXXXXXXXXXX  oo",
"XXXXXXXXXXXX  ooXXXXXXXXXXXXXXXXXXXXXXXXXX  ooXXXXXXXXXXXXXX  oo",
"XXXXXXXXXX..  ..XXXXXXXXXXXXXXXXXXXXXXXX..  ..XXXXXXXXXXXX..  ..",
"XXXXXXXXXX..  ..XXXXXXXXXXXXXXXXXXXXXXXX..  ..XXXXXXXXXXXX..  ..",
"                                                                ",
"                                                                "
};
