/* XPM */
static char *sky_2[] = {
/* columns rows colors chars-per-pixel */
"64 64 14 1 ",
"  c black",
". c #2C2C2C",
"X c gray22",
"o c #484848",
"O c gray33",
"+ c #646464",
"@ c gray44",
"# c #7C7C7C",
"$ c gray55",
"% c #989898",
"& c gray66",
"* c #B4B4B4",
"= c #C0C0C0",
"- c gray99",
/* pixels */
"        XX                XX    ..      OO  ..          XX      ",
"        XX                XX    ..      OO  ..          XX      ",
"              XX                              $$      XX        ",
"              XX                              $$      XX        ",
"XX                    --    ..            XX                    ",
"XX                    --    ..            XX                    ",
"                                                              --",
"                                                              --",
"    ##                    OO                      &&            ",
"    ##                    OO                      &&            ",
"    XX    XX        XX                XX                  XX    ",
"    XX    XX        XX                XX                  XX    ",
"                                            XX                  ",
"                                            XX                  ",
"                  ==  XX                                        ",
"                  ==  XX                                        ",
"                                      %%                        ",
"                                      %%                        ",
"                XX    XX                          OO          OO",
"                XX    XX                          OO          OO",
"      OO                                OO              &&      ",
"      OO                                OO              &&      ",
"                                oo        **          OO        ",
"                                oo        **          OO        ",
"                            oo              OO                OO",
"                            oo              OO                OO",
"  &&                  ++      ##    XX                          ",
"  &&                  ++      ##    XX                          ",
"XX                                                              ",
"XX                                                              ",
"                  XX                                          XX",
"                  XX                                          XX",
"            ++    $$        oo                              &&  ",
"            ++    $$        oo                              &&  ",
"        XX        OO            oo        ..                    ",
"        XX        OO            oo        ..                    ",
"                    OO                ..                XX      ",
"                    OO                ..                XX      ",
"              @@..                  %%  ++                      ",
"              @@..                  %%  ++                      ",
"                  ++            ..                              ",
"                  ++            ..                              ",
"XX        $$    $$                ..                        XX  ",
"XX        $$    $$                ..                        XX  ",
"  ..      XX                        ++            &&    OO      ",
"  ..      XX                        ++            &&    OO      ",
"                                          %%                    ",
"                                          %%                    ",
"                                                          oo    ",
"                                                          oo    ",
"            ++          OO                            ##        ",
"            ++          OO                            ##        ",
"          &&                                      oo    ..      ",
"          &&                                      oo    ..      ",
"                                    ..                      oo  ",
"                                    ..                      oo  ",
"                                  oo                    oo      ",
"                                  oo                    oo      ",
"                                                ..        ..    ",
"                                                ..        ..    ",
"  @@                ..        ..              ..                ",
"  @@                ..        ..              ..                ",
"                                                    ..          ",
"                                                    ..          "
};
