/* XPM */
static char *sky_1[] = {
/* columns rows colors chars-per-pixel */
"64 64 152 2 ",
"   c #549ACF",
".  c #4496D6",
"X  c #4997D6",
"o  c #4798D7",
"O  c #4B99D6",
"+  c #4597D8",
"@  c #4897D9",
"#  c #4698DA",
"$  c #4B9BDA",
"%  c #5195D4",
"&  c #539CD6",
"*  c #589ED6",
"=  c #529EDA",
"-  c #599FDA",
";  c #4EA0DC",
":  c #57A0D7",
">  c #5CA1D7",
",  c #55A1DC",
"<  c #5BA3DC",
"1  c #5DA8DF",
"2  c #63A2D5",
"3  c #6BA6D7",
"4  c #62A6DC",
"5  c #68A7DC",
"6  c #65A9DE",
"7  c #6BAADD",
"8  c #7BAFD6",
"9  c #73ADDC",
"0  c #7AAEDB",
"q  c #77B1DE",
"w  c #7BB2DD",
"e  c #4C9EE1",
"r  c #539FE1",
"t  c #4CA0E6",
"y  c #54A2E2",
"u  c #5DA5E1",
"i  c #5DA9E3",
"p  c #62A7E1",
"a  c #69A7E0",
"s  c #63AAE2",
"d  c #6BACE2",
"f  c #60ACEA",
"g  c #72AEE2",
"h  c #6DB0E5",
"j  c #6CB2E9",
"k  c #74B2E3",
"l  c #7BB4E3",
"z  c #7DB9E6",
"x  c #74B4EA",
"c  c #7AB7E9",
"v  c #7DB9EB",
"b  c #84B2D6",
"n  c #8AB3D3",
"m  c #83B5DE",
"M  c #8BB7DC",
"N  c #8BBADD",
"B  c #90B7DE",
"V  c #92BCDE",
"C  c #98BEDD",
"Z  c #82B6E2",
"A  c #85BAE4",
"S  c #8BBCE4",
"D  c #83BBEA",
"F  c #8ABEEB",
"G  c #92BEE4",
"H  c #9ABFE4",
"J  c #99C2DD",
"K  c #A4C5DD",
"L  c #ACC6DD",
"P  c #AACEDE",
"I  c #B6CDDD",
"U  c #8CC1E3",
"Y  c #8DC1EB",
"T  c #93C2E5",
"R  c #9BC4E5",
"E  c #9FC9E6",
"W  c #94C3EA",
"Q  c #9AC6E9",
"!  c #92C8EE",
"~  c #9BC9EC",
"^  c #9BC6F0",
"/  c #96CAF1",
"(  c #9CCBF1",
")  c #9ACDF8",
"_  c #A2C6E5",
"`  c #A4CAE5",
"'  c #AACBE5",
"]  c #A3C6E9",
"[  c #A4CBEB",
"{  c #AACDEA",
"}  c #B2CEE5",
"|  c #B0CDEB",
" . c #ADD2ED",
".. c #B3D1E6",
"X. c #BCD5E7",
"o. c #B4D3EC",
"O. c #BAD5EB",
"+. c #B5D9EC",
"@. c #BDD9ED",
"#. c #A2CEF3",
"$. c #AECFF0",
"%. c #A4D1F5",
"&. c #ACD3F3",
"*. c #B4D5F1",
"=. c #BCD7F3",
"-. c #B6D9F4",
";. c #BDDBF2",
":. c #B5DCFB",
">. c #BFE1FA",
",. c #C3D7E7",
"<. c #C5D9E7",
"1. c #CBDBE5",
"2. c #C3D5E9",
"3. c #C4DBEC",
"4. c #CADEEC",
"5. c #D0DEE7",
"6. c #D1DFEC",
"7. c #C3DDF2",
"8. c #CADDF2",
"9. c #C4DCF8",
"0. c #C5E1EE",
"q. c #CDE2ED",
"w. c #D3E3ED",
"e. c #DAE6ED",
"r. c #D6E9EF",
"t. c #DDEAEE",
"y. c #C6E1F3",
"u. c #CCE3F2",
"i. c #CEE8F5",
"p. c #C3E1F9",
"a. c #CDE6F9",
"s. c #D3E5F2",
"d. c #D9E6F2",
"f. c #D6E9F4",
"g. c #DCEBF3",
"h. c #DBEBF9",
"j. c #E2E7ED",
"k. c #E2EDEE",
"l. c #E9EEEF",
"z. c #EAF0EE",
"x. c #E3EEF3",
"c. c #EAEFF1",
"v. c #E1EDF9",
"b. c #E8ECF8",
"n. c #E5F1F4",
"m. c #EAF3F4",
"M. c #E6F2F9",
"N. c #ECF5F9",
"B. c #F2F4F2",
"V. c #F4F9F2",
"C. c #F0F5F8",
"Z. c #F1F9FA",
/* pixels */
"< 9 { w.l.z.m.n.k.m.m.m.m.l.g.f.4.w.q.q.0.d.g.k.n.x.f.@._ S l d < 4 2 < p s p u , X o o # # + . # . . e $ + . # # + X O X @ $ < ",
"< d ~ p.h.x.g.n.n.n.x.m.m.N.v.r.f.g.g.n.g.x.n.m.x.g.w.O.R S k 6 s s 6 < p 4 u < O X o $ e # . . e + . . # $ # + + + . o $ o @ = ",
": 5 A ` 7.d.x.x.x.m.m.m.n.j.g.w.3.s.d.x.m.z.l.N.n.f.y.o.H l g 2 u p 4 < 4 u , = , $ $ $ # # + # $ $ + + X $ $ @ + @ @ o + # @ = ",
"1 4 9 b { s.g.j.x.m.m.m.x.w.w.q.@.| 7.h.n.l.g.g.y.3.-.] Z g 4 < < u u < < < = , , , $ @ # # # # o @ = $ X @ @ $ e e $ o + # o ; ",
", u d 0 W -.@.3.t.m.c.c.g.y.y.@.&.T { 9.0.3.@.| R _ ~ F d 4 r r = u u < , = & ; , , , , $ $ o o X $ = y = @ @ $ $ $ @ # + # # ; ",
"$ u g z Y T T [ 3.s.g.g.y.o.[ { ! b M [ ` E Q S m Z l k < = e e @ = = r , & = , < , = & , , $ , $ & & < u = $ $ @ $ @ o + + . O ",
"9 S [ [ ` R N Y W ` ;.o.` ~ T ` T Z N W W A Z A c 9 s < = $ $ $ @ $ = = = & = , u < < & < < < , r = $ = , y $ $ o @ $ $ $ X O > ",
"P s.M.g.s.8.] G x w G V U / J E ( ~ T T F g 3 z x 4 * O $ $ $ $ e $ $ = = & $ = = , < 1 s d < & = $ & $ $ $ = @ # $ $ $ $ O 1 x ",
"s.f.g.M.x.<.N d d 7 7 l D A A T *.] S k d d d d s < , ; O @ $ O , ; , , , , = y = < > 4 s , ; O $ $ o $ $ o O @ # O O O t y q ` ",
"w.g.g.g.d.@.U d 6 6 6 d k 7 3 l m w g 6 - < 6 6 < & $ $ $ $ = = $ $ $ $ = : $ = s d 4 > & % y $ $ $ o o o o $ @ # O & ; y < S ;.",
"t.g.g.g.w.;.Y 4 6 6 s 4 4 < 4 6 u u u < = & - 4 , O @ $ $ $ = $ $ $ = = & O & = s h d 4 , $ ; O , $ o o o o o $ ; $ , , < 5 T 4.",
"n.g.g.e.q.y.%.q 7 7 6 s u < < i y r < < < < - = = O o $ o $ $ = $ $ $ , , ; : , > 4 d h p = $ , y $ $ @ o o + e $ $ , 1 d w  .u.",
"4.q.w.1.<.4.o.R v 7 6 s u = = , , = & < < , , $ , $ # # o $ , , $ = = y , = ; $ O > 2 p < $ $ , $ = e $ # . . $ $ $ 1 > 9 B O.4.",
"o.@.a.4.,.O.o.{ D 9 5 d 4 , = , & & < < = = = = , $ # $ X = , < $ & = , , $ @ $ @ & 1 : $ , $ = $ $ $ $ # . + o $ ; , 5 W  .@...",
"[ &.-.o.*.{ [ [ c 7 6 s u , = = & < < , = & < = $ $ $ $ $ , < * $ $ = = $ $ $ # $ O , O = y , O $ $ $ $ # + + # @ X < k :.a.-.[ ",
"A N N V ~ Y Z m d 4 4 < < , , % = $ , = $ , 1 1 $ $ = t = , < & , $ $ $ $ @ $ e t . : , y y = , = $ o $ # # # # $ $ u 9 { L J W ",
"k d k g k l k k d p = = $ $ $ = = X : < < < < & , $ @ = r = , : , : O X $ o o $ @ $ = , < , = $ @ # $ $ # # + o # # , 7 c D F m ",
"7 6 d d d 9 6 6 p < , $ $ $ $ & $ $ O , 4 s < < $ $ $ = = , < & , < , = $ $ $ o $ $ $ : = < = & @ $ @ $ # # + o o $ , 4 5 k z l ",
"d 4 d s s 5 4 4 4 < , = , = $ $ @ $ $ , d s < < , ; = O = y < = i < , t ; $ $ $ $ $ O , < < , , $ , , = # # o X ; , < 4 2 7 k g ",
"d 1 < s p 4 < < < < , = = $ = O @ $ $ , p < < , ; , , = = , , , , , , $ $ $ $ $ $ ; , , i < , O , u y = $ # # $ , i < 1 4 6 7 5 ",
"6 < < < 4 u - u u u , , , $ $ @ X . ; , < - < = = , = & = , , , O & O $ @ $ @ X @ $ , < , , O X O , , = X o $ t < < 4 1 4 4 4 s ",
"< < < = - < = r , , , = O $ $ @ @ . ; < = = , , $ = = = = = , = $ O X o o @ X $ $ $ : , , = $ $ X & : O # o $ $ & < s s < 1 < < ",
"1 < < = < 1 , = $ , = = = $ $ $ $ O ; , - & $ = $ & = , = & = = $ $ o o o # o $ $ $ , , = $ $ e $ $ , , $ # o $ * s s < < < < < ",
"2 < u < 4 d < O @ $ $ $ O $ $ $ $ , $ % y $ o $ = = = , , $ $ = t $ # o # # o @ @ @ , $ = $ $ # @ @ X $ e # @ $ = < < * < < , , ",
"s < < < < , = = X o $ $ $ X O o $ $ $ = $ $ $ $ e = < 4 < $ X $ $ @ @ @ $ $ # # # $ e = = = $ $ o # $ $ @ o o $ , , < < 4 u 4 p ",
"< = - = , , $ $ @ X o $ @ @ $ , $ $ $ $ = $ $ $ $ y 4 p < $ $ $ $ $ o # o # # o # $ $ = , $ $ $ # o $ $ $ $ $ ; & , < u p p p p ",
"= = % = $ $ $ @ $ X $ o @ $ $ e $ $ & = , $ $ @ $ u < p < , $ O @ @ $ # @ @ # o # # # $ $ $ $ $ # + o @ $ $ ; $ O : , , , < = = ",
"$ $ $ $ ; $ $ $ $ @ $ $ = e $ # $ $ $ r , , $ $ $ = < < , $ , O $ @ $ $ $ @ @ + # + @ e $ @ o o $ # o o $ ; $ $ ; $ $ $ $ O X X ",
"O $ $ $ $ $ o $ $ O $ = , $ $ $ $ # $ , , ; $ $ o = , , ; $ ; % $ $ $ $ $ $ $ o # # # + + . . + + @ @ @ o $ X $ ; $ ; # $ $ @ $ ",
"o X o $ $ $ $ ; $ ; , < , = & O $ $ O = , $ $ o + $ O @ $ $ $ & & = = $ $ $ $ o # # # e + . . + + + @ @ o $ $ o + # # ; $ # # o ",
"o o @ $ o o $ $ $ , < < 1 < * & = = = = $ $ o # + + + . + + $ ; < = , , , O $ o + + . . . . . . # o $ @ $ $ $ $ o o + + + . # . ",
"+ @ @ $ o o o o = = < p k x d < < , = = , $ o # e . . . + . # ; > 1 < , , $ $ @ + + + . . . . # $ $ ; $ $ $ $ X $ X + . . + + # ",
"o + $ $ + O @ @ $ $ - 7 9 g g 6 d > , : O ; , X # X O @ + . @ & < u , u , & & O X @ o + + # $ # # $ t $ $ $ $ e $ $ X o $ + . . ",
"@ $ . X ; O o o , , < i d 7 7 D z 5 4 i , ; y $ t $ O @ $ t = O < u < 4 4 < s , $ $ @ o # # o $ $ $ , % & X @ $ r $ $ o + . . ; ",
"y ; X = , < $ y < < , , i 6 9 S Y l k d < $ $ $ @ & = = $ o = < < > 3 c v k 4 i , y $ @ o $ @ $ & , , , , O $ y r = $ $ # # + ; ",
"y , : 1 1 : $ t & u , O i d g Z Z q 7 4 , , , $ y = = = $ ; y d s 4 9 G W w 7 d < < % O $ e $ $ : < < < , , X $ r $ $ $ $ ; o . ",
"&   < d > > , $ $ r < < 5 h k p 6 4 < & = < 4 > < < < < - * 6 h v z S G J U A l g d 4 < u u = $ : , , , , , $ # y $ $ $ $ = = > ",
"l q k x 6 s s , e = 6 9 3 6 s u i i , $ = 4 d 5 6 6 4 6 g k l q l Z R {  .{ R S S S m w g p = = < < < = , $ $ $ @ ; , = = , d c ",
"%.) D k 6 h 4 & = u d d 5 2 < < : < , , < d c Z Y k 5 k G #.H Z w m ~ -.;.o.' { o.| { Q S g 6 < 4 4 1 > , % $ @ @ = , , - 4 l Y ",
"n G 9 2 4 h 4 <   d s - < < < > > < < : < 6 k D Z l l S G ] [ #.Y W [ { o.O.O.;.1.u.8.*.$.A g x k c k d s < & $ $ $ = = < 5 l A ",
"k 9 5 4 < i < * 4 p p u 2 2 1 & < : < u < s g k 7 D S Z D D %.[ { H B Q &.*.8.d.t.h.a.;.{ _ R T F J K ~ 5 y $ - , = ; t & < d k ",
"D k k 7 < < 1 < - p p u p p < y < < < 1 s h l l x F G 0 9 Z S C {  . .` +.y.w.w.k.x.g.4.2.O.o.[ %.o.4.>.l u = & , = , $ X : 4 7 ",
"k 0 l k d 4 < u 4 p u u d d i i i < s 4 3 l l A l Z S Z l D m Q `  .+.+.4.r.t.x.m.m.x.d.6.u.7.@.;.u.g.a.A 4 , > < < , $ O O < 1 ",
"5 9 Z D l 7 7 7 5 p < 2 d k 6 7 6 1 6 5 9 g l Z W Q G S D Z 0 W R ] o.3.s.d.x.N.V.Z.m.j.s.d.u.<.<.d.f.O.8 6 i < 1 4 , O = $ , < ",
"< k F S m m N T g d 6 9 m S m m 7 6 7 7 k c q l } p.{ R S A Z A ] &.;.4.s.b.N.N.Z.Z.n.w.4.7.8.1.4.f.s.' 0 s s i 4 < , & $ = = , ",
"p d l A S ~  . .c g g A T ~ R Q Z w d 7 c D S ! 2.u.O.` R T ~ ~ O.y.i.r.e.x.V.m.Z.N.g.3.{  .;.s.w.f.u. .l 4 < i < < , , < , , < ",
"< 4 7 l Y ~ [ { A m A ! ~ Q ~ W F l 7 g A W ` ;.d.w.3.O.@...o.o.0.q.w.h.t.k.m.B.N.m.w.o.T T o.s.f.s.;.$.D d < , : , , < < u i 1 ",
"4 4 7 c k m T ` R S T ~ G A Z l Z g d k Y ` I w.s.4.a.3.i.g.w.4.<.4.s.h.g.x.N.N.B.m.w.{ A m ` s.f.4.' H Z k s > : & , u 4 4 6 2 ",
"6 d 7 9 w l m S R Q Q S m 0 l 9 w Y m U  .3.q.w.w.d.e.w.e.g.g.s.u.4.q.d.g.x.n.B.B.x.p.#.A Z Q { &.&.W A l c 4 6 = = = < 4 4 p < ",
"4 7 c l Z Z G #.{ { Q Q ~ ~ W Y ~ %.[ { y.i.d.t.g.x.x.g.g.x.x.g.s.4.w.f.f.g.n.N.V.t.3. .G Z Z F M G m q d d 1 & = , < 2 p < < < ",
"< s k v Y T Q &.7.9. .` &. .{ `  .;.O.4.g.x.x.x.n.x.x.x.n.n.x.n.g.w.e.f.w.q.g.h.n.r.2.@.{ A q x 0 Z 9 6 < u , $ & , < < < 4 < < ",
"< 6 k D Q Q ` o.3.u.@...o.@.@.2.X.3.1.w.n.n.k.m.n.x.m.M.n.x.x.n.x.x.g.f.s.4.7.@.7.9.O. .[ G w z D D 6 4 = , $ = = < < < < 4 < * ",
"< 4 l A Q ` } 7.1.s.3.o.@.3.f.s.4.s.w.j.x.m.n.N.m.m.m.m.m.n.k.n.c.x.g.g.6.7.{ Q ] &.W Z A S S U v x 6 4 = = $ , < i u < < < < 4 ",
"d 9 l S _ X.4.h.g.w.O.o.@.7.f.g.f.g.g.g.x.m.m.N.N.m.N.Z.m.k.x.x.k.g.s.u.4.@.` A C ~ Z 2 s x k 9 a 2 4 f < & & - < u < < < < p d ",
"k l Z Q o.y.f.g.g.1.O. .' o.f.g.d.g.x.e.g.n.n.m.m.C.N.C.m.x.x.x.e.s.y.4.2.@.Q l S S g 2 u u = O = < < i = - & - < < < y , < s j ",
"g A T [ =.4.w.g.g.8.@. .R ` y.s.e.g.v.g.r.x.l.m.m.m.m.m.m.m.n.x.w.s.y.y.3.@.] D c v g < < @ @ # O O $ , o O r r < < < < - % < d ",
"d D ` O.<.5.g.g.f.8.8.;.T J 0.h.s.a.i.q.w.g.m.k.x.N.m.m.n.m.b.x.g.1.s.s.X.' H S k 4 < < , O X $ $ $ $ $ ; & : , = , , , $ = , < ",
"d D [ ;.u.f.M.M.g.g.s.@._ ` y.6.@...' ' @.g.v.t.N.m.z.m.m.m.M.M.e.s.a.u.s.8.G j 6 > $ $ X X $ # o O $ , , , $ , = = , $ $ $ = , ",
"4 0 T @.4.s.n.n.l.v.f.3.`  .u.2.*.] T #.*.=.4.w.n.m.n.N.m.m.x.g.e.f.y.w.d.a.A f 4 & $ o X $ $ o o X $ ; ; $ , , X $ $ $ $ $ $ , ",
"2 9 S  .3.s.m.l.k.v.d.<.| *.0.} ` T Y Y S ] O.4.e.M.m.m.m.g.f.4.@.3.1.e.w.7.M d 4 = @ # o @ $ # o o X $ O O $ $ $ $ @ $ $ $ $ $ ",
"4 g G $.@.f.n.l.g.v.g.q.=.o.@.} R G Z 9 m ` 7.i.w.x.x.x.g.i.4...&. .3.g.w.u.R m 4 = o # + . # # $ o $ $ $ + @ $ e $ # $ # $ $ , ",
"p D Q o.0.f.x.t.r.g.g.r.8.7.0.7.=.` T T Q o.y.h.x.x.g.g.s.@. .] ] T ( *.<.f.{ S s = o e + . . # o $ ; $ $ o @ $ # # # # # @ $ $ ",
"p F { 7.g.v.n.g.t.g.t.n.d.d.g.q.a.|  .:.*.} <.g.N.M.g.s.3.[ T S A k j q H  .T l u $ + + + o . + o $ $ ; $ $ # $ # + o $ $ @ X , ",
"4 A { 1.n.m.t.n.c.M.n.m.b.x.l.r.1.3.+.;.;.1.w.g.x.x.e.<. .R A 9 d 4 < < x D 7 9 - $ + . . o + + + o o o + + # $ @ + o ; $ X O , "
};
